<svg xmlns="http://www.w3.org/2000/svg" xmlns:xlink="http://www.w3.org/1999/xlink" width="4000" height="4092"><defs/><defs><linearGradient id="a"><stop offset="0" stop-color="#ffa000"/><stop offset="1" stop-color="#ffde00"/></linearGradient><linearGradient xlink:href="#a" id="c" x1="1125.7" y1="234.6" x2="2473.1" y2="3116.7" gradientUnits="userSpaceOnUse"/><clipPath id="b"><path d="M0 3069h3000V0H0z"/></clipPath></defs><g clip-path="url(#b)" transform="matrix(1.33333 0 0 -1.33333 0 4092)" fill="url(#c)"><path d="M1842 2489c12-1 21-3 30-6-9-3-21-1-30 6m-49 225c-7-1-10 3-13 9 7 0 10-3 13-9m-437-306l-63 4c-78 6-155 16-229 41l-48 21c-14 8-22 22-33 33-12 12-10 30-6 46 5 17 15 32 26 45 21 24 47 42 74 57 49 29 102 46 158 56 35 6 69 9 104 12 20 2 40 1 60 5h15c-2-14-4-15-17-16-90-3-178-16-264-46-22-7-43-16-62-29-24-16-39-40-55-63-8-14-14-29-16-46-3-20 4-32 23-38 7-3 14-5 22-3l-22 8c-12 5-18 14-17 27 0 9 1 18 5 26 14 32 32 60 59 82 15 11 32 19 49 25a789 789 0 00192 46l19 1c2-5-2-6-5-8-68-53-132-111-192-173-2-3-6-5-7-10l-3-2-2-3-3-3a45 45 0 011-1c2 0 3 1 3 3l3 2 2 3a2906 2906 0 00188 167c7 6 15 11 20 18 7 8 15 10 25 10l34 2c3 1 6 1 10-2l-9-17c-12-23-22-46-25-72-3-18-4-36-5-54l-6-52c-5-34 0-67 21-95l3-6-27-1m-369-87l1-91 1-366v-113c0-3 1-7-2-10-4 0-3 3-3 6v9l-8 705c0 4-1 9 1 13 9-2 9-9 9-16l1-137m3-651v-29c0-10 1-19-3-28-2 28-2 55-1 83 6-8 3-17 4-26m3-610c-2 13-7 474-5 485 4-1 3-4 3-6v-8l5-455c0-5 1-9-3-16m453 1681v-1h-1zm449 248h2l1-1h-3v1m608-267l-4 9 4 1-2 4-4 4-1-1 3-4v-4c-5-6 1-14-3-21-4 2-6 6-9 9l-52 65c-31 38-69 67-111 91-64 35-133 57-205 68a978 978 0 01-190 5 847 847 0 01-243-53c-60-23-109-61-144-115-25-38-52-74-74-114-23-42-36-86-42-133l-2-18c-4-33 2-64 15-95l3-8v-4h-42c-5 0-6 3-8 7-19 33-24 68-16 105 4 17 5 35 6 53 0 44 14 84 35 123 12 22 30 39 49 55l29 26c2 2 6 4 4 9-20-11-34-28-50-43-3 4 0 6 1 8 20 38 46 72 74 104a398 398 0 00190 102c44 10 87 19 131 26l31 4h9c6 0 0-4 2-5 3-1 6 0 9 1 25 7 50 9 76 7 33-2 66-4 100-10-6-8-16-7-25-13 12 0 22 3 31 5l3 2c0 7 5 4 8 4l56-12c56-13 111-30 165-52 53-22 96-56 130-102 16-22 31-45 48-66l8-7 1 1v3c-22 30-41 64-63 94-19 28-43 51-71 69a913 913 0 01-357 99c-53 3-105 1-156-6-59-9-116-21-173-37a358 358 0 01-184-117l-28-36c-15-21-27-43-39-65-3-5-6-8-12-8h-10c-41 1-81 0-122-1a512 512 0 01-224-64c-29-17-57-36-78-64-9-12-18-26-24-41-5-15-4-29-4-44 1-12 4-22 12-30 5-7 7-13 7-21l1-255 7-599 2-101 8-677v-24c5 4 4 10 4 15l-1 183c0 4-1 8 2 14 4-6 3-11 3-15l4-174 10-199c0-7 0-15-2-22-1-7-3-14-2-21 4-33 9-65 16-96l14-60c8-29 11-59 15-88 5-32 19-57 46-76 26-18 55-32 83-47a623 623 0 01185-67l68-9c32-3 64-6 96-7a498 498 0 01149 14l39 11c58 16 114 35 165 66 31 19 62 37 92 59 16 12 32 25 46 40 7 9 15 18 17 29 1 6 2 12-5 16l-7-11c-8-10-15-21-24-30-15-14-31-27-48-39-27-20-57-37-86-55-20-12-41-23-63-31-36-15-72-26-108-36-45-13-90-20-136-21a1020 1020 0 00-250 31c-72 20-136 56-197 96a82 82 0 00-34 41 202 202 0 00-10 35c-4 27-8 54-15 80-7 29-16 57-24 86-10 38-18 76-15 117 3 43 3 87 4 131l1 99v200l-6 533-7 397-6 383c0 22-3 45-2 68l1 1 1-1c16-11 33-17 50-23 41-14 82-25 125-30l75-9c51-6 102-6 154-8 37-1 75 3 112 4 22 1 44 4 65 6 35 4 70 10 105 16 34 6 68 11 102 20 46 13 93 25 137 46 32 14 62 30 90 52 21 16 31 39 24 66-4 14-10 26-13 39-2 10-1 21-4 31-5 20-6 41-19 59l-2 3-16 44c-9 23-17 47-28 70-7 12-7 13-21 11l-9-2-40-11c-20-5-40-12-57-24-19-12-40-20-63-22-13-1-26-6-37-15-3-3-7-6-8-10 0-4 5-6 7-9l5-7c29-28 57-56 87-83l68-59c20-19 41-37 60-57 4-4 9-7 15-9-1 5-3 6-5 9-23 27-51 50-77 74-27 25-56 48-82 74-3 2-8 5-5 8 3 4 7-1 10-3l1-1 110-82c3-2 6-5 13-5-11 11-23 16-32 26-6 1-10 5-14 10v4l-5 4c-6 0-10 3-14 6l-83 64c-4 3-8 10-15 3-2-1-4 1-6 2l-27 26c-3 3-3 6 0 9 4 4 8 7 13 9 10 4 20 7 30 8 19 2 36 8 52 18 21 14 44 24 69 29l30 8c20 5 20 5 27-14l42-113c5-13 13-25 15-39l16-77c4-25-4-45-24-60-28-20-58-35-88-49-10-4-20-10-31-10h-1c-3-5-6-3-9 0-2 4 5 2 4 5-13 6-27 9-41 13-79 19-157 40-236 62-16 4-30 14-41 27-5 5-7 11-5 19 2 10 8 18 15 25l35 32c23 19 46 37 63 62 5 9 10 10 19 6 11-5 20-12 28-18 28-21 54-44 81-65 44-35 89-68 135-100 10-7 20-14 32-19-1 3-2 4-4 5l-51 39c-61 43-119 89-177 136-13 10-27 21-42 28-10 4-21 4-29-8-9-14-19-28-33-38l-30-24c-9-7-14-15-23-21-11-8-18-18-23-30-7-19-2-33 10-42 2-2 6-2 6-5 1-7 7-8 12-10l46-15 106-30 94-23c3-1 8 1 9-5-4-2-9-1-13-1l-85 17c-49 9-97 20-144 35-10 3-19 5-29 2-17-4-26-12-26-30l1-27c1-9-2-16-9-20-4-3-7-6-9-10-6-10-4-26 4-33 2 2 3 5 3 8 0 12 6 20 16 26s13 16 11 28c-2 9-1 19-2 29 0 6 2 10 7 13 9 6 18 10 30 7 8-3 17-7 26-9 30-9 61-17 92-24l50-10c25-4 50-6 75-11 9-1 18 1 27-4-2-3-5-4-7-5l-64-18a1879 1879 0 00-331-43c-11 0-11 0-13 10a641 641 0 01-13 59l11 72c10 49 28 95 55 136l58 87c20 28 43 53 73 71 22 14 46 25 71 35 49 18 99 28 150 39a759 759 0 00230 11 599 599 0 00247-75c28-16 54-35 77-57 31-29 55-64 87-93 3-3 3-6 3-10 1-17-5-32-8-47-2-10-8-17-16-23l-34-25c-1-2-3-3-5-2 0-2-1-2-3-2l-30-19-85-49-97-56-86-46c-15-8-32-16-47-26-4-3-7-6-9-10 6-2 10 1 14 3l103 55 93 50 41 24 67 39c25 15 50 29 73 46 15 10 27 22 32 40 7 26 9 51 5 77"/><path d="M1894 2986c-2 0-2 2-2 2l3 3h2l3-2v-3h-3-3m-110-266c1-2 3-4 6-4-2 2-3 4-6 4m3-8c-5 2-7 6-9 10l-1 3h3c8 0 12-4 15-10l1-2-2-1h-7m-375 14h-13l-37-4-23-1c-34-3-69-6-103-12-60-11-111-29-158-55-32-18-55-36-73-57-13-15-22-29-26-44-6-21-4-35 5-44l10-11c7-8 14-17 23-22 18-9 33-16 48-21 79-27 159-36 228-41a2305 2305 0 0181-3h6l-2 2c-20 28-27 60-21 98 2 15 5 34 6 52s2 36 5 53c3 23 11 47 25 73l7 13 1 3h-7l-12-1-22-1c-11 0-17-3-23-10-4-5-10-9-16-14l-4-4c-63-51-123-104-178-158l-2-2c-2-3-5-6-9-7l-4-5a5 5 0 00-4-3h-1l-1 1-1 1-1 1 2 3 6 6c1 4 4 6 6 9a50 50 0 012 2 1763 1763 0 00197 177h-5l-12-1-50-8c-52-9-99-21-142-38-16-5-33-13-48-25-24-19-43-44-59-81-4-8-5-17-5-25-1-13 4-20 16-25l16-6 13-5-7-1c-9-2-16 0-24 3-20 7-27 19-24 41 2 16 7 31 17 46 14 22 30 47 55 64 20 14 43 23 63 29 81 28 168 43 264 46 11 1 13 2 15 12m-339-278l-9 3c-15 5-30 12-48 21-11 6-18 15-25 23l-10 11c-10 10-12 26-6 48 5 15 13 30 27 46 18 21 42 39 74 57 47 27 99 45 159 56 35 6 70 9 104 12l23 2c12 0 25 1 37 3h18v-3c-3-14-6-17-20-17-96-3-182-18-263-46-20-6-42-15-62-28-24-17-40-42-54-64-9-13-14-28-16-44-3-19 4-30 22-36 3-2 7-3 10-3l-12 4c-13 5-19 15-18 29 0 9 1 18 5 27 17 37 36 63 60 83 16 12 34 19 49 25a785 785 0 00206 47h6l2 1v-2c2-6-2-8-4-10l-2-1c-66-51-130-109-191-172l-2-2-4-5 5 5 2 2c55 54 115 107 178 159l5 4c5 4 11 8 15 13 6 8 14 11 26 11l22 2h12l1 1c3 0 6 0 10-3l2-1-4-6-6-13c-14-26-22-49-25-71l-5-54c-1-18-4-36-6-52-6-37 1-68 21-94l2-4 1-2 2-3h-4l-9-1h-18l-64 4c-66 5-143 13-219 38m-95 24v-11l8-661v-47-6-2l1-2v121l-1 175v255l-1 27v43l-1 94c0 7 0 11-6 14m8-733c-4 1-4 5-4 6v11l-1 44-7 661v3c0 3-1 7 1 11v2l2-1c12-3 12-11 12-18v-94l1-43v-91l1-191v-288-2c0-3 1-6-2-10h-2a9 9 0 00-1 0m1-68a708 708 0 011-30v29l-1 1m-1-67l-1 9c-2 27-2 55-1 83v6l4-5c4-6 4-13 4-20v-7-29-7c0-7 0-14-3-22zm3-114l4-333-3 305zm4-436l-2 6c-2 11-8 474-5 485v2h2c5-1 5-5 5-7v-1-8l1-69 4-386a42 42 0 010-3c0-3 1-8-3-14zm901 1589l22-16-3 3c-6 4-11 7-15 12l-4 1m-446 99l1-4 15 14 30 27 1 1c1 1 2 1 2 3-13-9-24-19-35-30l-11-11-2-2-1 2m404-256c4-2 8-2 11-2l-11 2m-272 78l11-4 36-12 74-20 33-10 93-23h3c2 0 5 0 7-3l6-1c11-1 20-2 30-6h1l2 2-35 10-2 1c-72 17-149 38-236 62-16 4-30 13-43 27-5 6-7 13-5 21 2 10 7 19 15 26l35 32 9 8c20 16 40 32 54 55 6 10 13 10 22 5 11-4 20-11 29-18l47-38 33-27c46-36 94-70 135-99l3-2c6-5 13-10 21-14l-14 11-35 26c-64 45-125 94-177 136-13 10-26 21-42 28-8 3-18 5-26-7-9-14-19-28-34-38l-16-14-14-11-11-10c-3-4-7-8-12-11-10-7-18-17-22-28-6-18-3-31 10-41h1c2-1 5-2 5-6 1-4 4-5 8-7h1m-80 225l1-2c2-6-2-9-3-11h-1l-30-27c-18-15-36-31-48-54-23-44-35-82-35-122 0-18-2-36-6-54-8-38-3-72 16-103v-2c2-3 3-4 6-4h40v1l-3 8c-13 31-19 64-15 96l1 14 1 4c6 48 20 93 42 134 15 28 33 54 51 79l23 35c34 53 83 92 145 116a845 845 0 00434 48c75-11 144-34 206-68 46-26 83-56 112-91l36-45 16-21 1-1 5-6v7c0 4-1 8 2 12v2l-3 3-6 6-1 2c-13 15-26 33-37 49l-12 16c-34 47-76 81-129 102a1091 1091 0 01-205 61l-15 3h-2l-3 1-1-3c0-3-3-4-4-4l-7-2c-7-1-15-3-25-3l-7-1 6 4 12 6 10 5c-33 5-64 7-96 9-29 2-54-1-76-7-3-1-6-2-10-1l-1 1v1 3h-8l-9-1-23-3c-39-6-81-15-130-26-64-15-118-41-164-79l-4-3c-7-6-15-12-21-19a548 548 0 01-76-107l10 9c11 11 23 23 38 32zM994 1031l2-3c3-5 3-10 3-13v-3l1-47 3-127 3-58 7-141c0-6 0-14-2-22s-2-15-2-21c4-31 9-63 16-96l5-21 9-39c6-21 9-44 12-65l4-23c5-33 19-57 44-74s51-31 77-45l6-3a628 628 0 01184-66l27-3 41-6c38-4 68-6 96-7a504 504 0 01149 14l39 11c51 14 110 33 164 66l11 6c27 17 55 33 80 53 20 14 34 27 46 40 7 8 15 16 17 28 1 6 1 9-2 12l-2-2-5-7-3-4c-6-9-12-18-20-26-16-15-33-28-49-40-24-18-50-33-76-48l-10-6c-23-14-43-24-64-32-36-15-73-26-108-36-48-14-93-21-136-21a1017 1017 0 00-251 31c-77 22-146 63-197 96a84 84 0 00-35 42c-5 12-8 24-10 36a959 959 0 01-28 126l-11 39c-10 39-18 77-15 118l3 96 1 35v50l1 49v200l-1 93-6 440-3 198-3 199-4 258-2 125-1 25c-1 14-2 29-1 43l1 5 4-3a578 578 0 01209-57l40-5c45-5 91-6 136-7l18-1c26 0 53 1 79 3l33 1c21 1 42 4 62 6h3c35 4 70 10 105 16l11 2c30 5 61 10 90 18 43 12 92 25 137 46 28 13 61 29 89 51 22 18 30 39 23 65l-5 16a120 120 0 00-8 36c-1 6-1 12-3 17l-4 17c-3 14-6 29-15 41l-2 4-5 15-11 29-8 22c-6 16-12 32-20 48-6 11-6 11-19 10l-8-2-13-4-28-7c-23-6-41-13-56-23-20-14-40-21-64-23a62 62 0 01-37-17l-6-6c0-2 1-2 3-4l4-4 4-7 26-25 61-57 18-16 50-44 14-12a758 758 0 0055-49l-2 1c-18 22-39 41-60 60l-17 15-31 28-51 45-1 2c-2 1-5 3-5 6l1 4 4 2c3 0 5-2 7-4l2-1a9 9 0 001-1l80-60-5 5-1 1v4l-4 3c-5 0-9 3-13 5l-1 2-17 13-67 50-2 3c-4 3-6 5-10 1-3-3-7 0-8 2l-27 25c-4 4-4 8 0 12s8 7 13 9c8 4 19 8 31 9 19 2 36 8 51 18 20 14 43 23 69 29l22 6 8 2c21 6 23 5 30-15l19-51 23-62 6-14c4-8 8-17 9-25l7-35 9-43c4-25-4-46-25-61-28-21-59-36-88-50l-5-2c-8-3-17-8-27-8-1-2-3-3-5-3-3 0-5 2-6 4l-1 1-1-1c-10-4-23-1-32 7l-3 2a12 12 0 000-2v-1l-1-1c-5-2-10-1-15-1l-46 9-39 8c-54 10-101 22-144 35-9 3-17 5-28 2-17-4-24-12-24-29l1-26c1-10-3-17-10-22-4-2-6-6-8-9-5-8-4-22 2-29l1 5c0 12 6 21 17 28 8 5 12 14 10 25l-2 21v9c0 6 3 12 8 15 8 5 18 10 31 7l13-5 13-4c30-8 61-17 93-24l11-2 39-8 34-5 40-6h9c6-1 13-1 19-4l2-2-1-1c-2-4-6-5-9-6l-20-6c-14-4-29-9-44-12a1848 1848 0 00-331-43c-12 0-13 1-15 12l-12 49c-1 3-2 7-1 11l4 24 7 48c11 50 29 96 56 136l14 23 44 64c21 31 45 54 72 72 21 13 44 24 73 35 47 18 97 28 146 38l3 1a756 756 0 00231 11 597 597 0 00249-76 421 421 0 00117-100c15-17 30-34 46-49 4-3 4-7 4-11v-1c1-12-2-24-5-35l-3-13c-2-9-7-16-17-24l-15-11-18-14-6-2c0-2-1-2-3-2l-9-6-20-13-33-18-53-31c-37-22-68-40-97-55l-31-17-55-29a636 636 0 00-47-27l-7-7c3 0 5 2 8 3l2 1 42 22 61 32 32 17 61 34 40 23 26 16 42 24c27 16 51 29 73 46 12 9 26 20 31 39 7 26 9 51 5 75l-2 4v-5c1-3 1-7-1-11l-1-2-2 1c-4 2-6 5-8 8l-1 2-16 20-36 45c-29 35-66 65-111 90a599 599 0 01-304 76 820 820 0 01-230-25c-41-10-73-20-102-31-62-24-110-62-144-114l-23-35c-17-25-35-52-50-79-22-41-36-85-42-133l-1-3-1-14c-3-32 2-63 15-94l3-9v-2a16 16 0 010-2l-1-2h-43c-6 0-8 3-9 6l-1 2c-19 32-24 68-16 106 3 17 5 35 6 53 0 40 12 80 35 124 9 16 21 29 33 41h-6l4 8 1 5 1 1a552 552 0 0097 124l4 4c46 38 100 64 165 79a1882 1882 0 00154 29l8 1a78 78 0 009 0l4-1v-4l6 1c23 6 48 9 77 7 34-2 67-4 101-10h3l-2-3c-4-5-10-7-15-9h-1l14 2 6 2h1l2 6h9l15-3 40-9c60-14 114-31 166-52 54-22 96-56 130-103l12-16 37-50 1-1 3-4-31 47c-9 16-19 32-30 47-21 28-44 51-71 68a908 908 0 01-356 99c-53 3-105 1-156-6-56-8-114-21-173-37a354 354 0 01-182-117l-12-15-16-20c-14-20-26-41-37-61l-3-4c-2-5-6-9-13-9a86 86 0 01-10 0l-122-1a506 506 0 01-223-63c-26-16-56-35-77-64-8-10-18-24-24-41-4-12-4-24-4-37l1-6c0-11 3-21 10-29 6-7 8-13 8-22l1-228v-27l1-102 6-497 1-70 1-31 7-648v147c-1 4-1 8 3 13zm294-852c-40 13-77 31-108 48l-6 3c-26 13-53 28-78 45-26 17-40 42-46 77l-3 22c-3 22-6 44-12 65l-9 39-5 21c-7 33-12 66-16 96-1 7 0 14 2 23 2 7 2 15 1 21l-7 141-2 58c-2 42-3 86-3 127l-1 47v3l-1 7V922l1-92v-2c0-5 0-10-5-15l-3-4-9 707v31l-1 70-6 497-1 102v27l-1 228c0 8-2 13-7 19-8 9-12 20-12 32v6c0 13 0 26 4 38 7 18 17 32 24 43 22 29 52 49 79 64a452 452 0 00225 64 2348 2348 0 00132 1c4 0 7 2 10 7l2 4a395 395 0 0054 82l12 15a358 358 0 00185 118c58 16 116 29 173 37a771 771 0 00235-1 908 908 0 00279-92c28-18 51-41 72-70l31-47 31-47 1-2 4-6 1-1h2l-2-2 1-2-3-1c0-2 1-5 3-7v-1c4-25 2-51-5-77-6-20-20-32-32-42-23-16-47-30-74-45l-42-25-25-15-41-24-61-33-32-17-61-32-42-22-2-1c-4-3-8-5-14-3h-2l1 3c2 5 6 8 10 11l31 17 16 9 55 30 31 16c29 16 60 33 97 56l53 30 32 19 21 13 9 5 1 1h1v2h2l3 1 19 14 15 11c9 7 14 14 16 22l3 13c3 11 6 22 5 34v1c0 3 0 6-3 8-16 15-31 32-46 49-13 15-26 30-41 44a532 532 0 01-207 111 593 593 0 01-194 23c-55 0-105-5-151-14l-3-1c-49-10-99-20-146-38-28-11-51-22-71-35-28-17-51-40-72-70l-43-65-15-22a377 377 0 01-62-182l-4-25 1-9 12-49c2-9 1-9 11-8 40 0 82 3 135 8 57 7 118 17 196 34l43 12 20 6 5 2c-5 2-10 2-15 2l-10 1c-13 3-27 4-40 6l-34 5-39 8-11 2c-32 7-63 16-93 24l-13 4-13 5c-11 3-21-2-28-7-4-2-6-6-6-11l1-9 1-20c2-13-2-23-12-30-10-6-15-14-15-24 0-3-1-7-4-10l-1-1-1 1c-9 8-11 25-5 36 2 4 5 8 10 11 6 3 8 9 8 17l-1 28c0 18 8 27 27 32 12 3 21 1 30-2 43-13 90-25 144-35l39-8 46-9h11c-1 2-2 2-4 2h-4l-93 23-34 10-73 20-36 12-11 4c-5 1-11 3-12 11l-2 2-3 1c-14 11-18 26-11 45 5 12 13 23 24 31l11 10 11 10 14 12 17 13c14 10 24 24 33 37 7 12 18 15 31 9 16-8 30-18 43-29a3847 3847 0 01212-162l15-12h1c1-1 3-3 4-7v-4l-3 2c-11 5-21 11-30 18l-2 1c-41 29-90 64-135 100l-33 27-48 38c-8 6-17 13-27 18-9 4-13 3-17-5-15-23-35-39-55-56l-9-7c-13-10-24-21-35-32-7-7-12-15-14-24-1-7 0-12 4-17 12-13 26-22 41-26l236-62 2-1c13-3 26-6 39-12h1v-1c1-3-3-4-4-5l3-2 2 2 2 2 1-1c9 1 17 4 25 8l5 2c29 14 60 29 87 49 20 15 28 34 24 57l-9 43-7 35c-1 8-5 17-9 25l-6 14-23 61-19 51c-6 18-6 18-25 13l-8-2-22-6c-25-5-48-15-68-29-15-10-33-16-52-18-12-1-22-5-30-8-5-2-9-5-12-9-2-2-2-3 0-6l27-25 2-2c7 7 13 2 16-1l2-2 66-51 19-14c3-3 6-5 10-5h2l6-5v-5c4-4 7-7 12-8h1v-1l15-12c6-4 12-8 17-14l4-4h-5c-6 1-10 3-13 5l-1 1c-36 26-74 54-111 83l-3 2-4 3v-1l-1-1 3-3 2-2 50-45 32-28 17-15c21-19 42-38 61-60a33 33 0 011-1l4-8v-3h-3c-6 2-11 5-15 10l-47 44-14 12-50 44-17 16-62 57-26 25-5 8-3 3c-2 1-4 3-4 7 1 5 4 7 7 10l2 1c10 9 23 15 38 16 23 2 43 9 62 22 16 11 34 18 57 24l27 7 14 4 9 2c14 2 15 1 22-12l21-48 8-22 11-30 5-14 1-3c10-13 13-29 16-44l4-15c2-6 2-13 3-19l1-13c1-7 4-14 7-21l6-17c6-27-2-51-25-69-29-23-62-39-90-52-46-21-95-34-138-46-30-8-60-13-90-18l-12-2c-35-6-69-12-104-16h-3l-63-6-33-2-79-2-18 1a1716 1716 0 00-176 12l-35 4a574 574 0 00-175 53l1-40 1-26 2-124 4-259 3-199 4-198 5-440 1-93V874l-1-49v-50l-1-36c0-31-1-64-3-95-3-41 6-78 15-116l11-40 13-46c7-27 11-54 15-80 2-12 5-24 10-36 5-15 16-28 33-39 51-33 119-74 196-96 33-10 67-15 101-20 54-7 102-11 149-11 43 1 87 7 135 21 35 10 72 21 108 36 20 8 41 18 63 31l10 6a930 930 0 01124 88c7 7 14 16 20 25l3 4 5 7 3 6 2-1c8-5 7-12 6-17-2-13-10-23-18-31-12-13-26-26-46-41-26-19-54-36-81-52l-11-7c-55-33-114-52-165-66l-39-11a557 557 0 00-150-14c-28 1-59 3-96 7l-41 6-27 3c-23 3-46 9-65 15a394 394 0 00-13 4m782 1924l-6 234-2 116c0 41-2 81-3 122l-1 8c0 2-2 3-4 3-3 0-3-2-3-4v-6l-1-155v-740-6l-1-4c0-2-1-2-3-2s-2 0-3 2l-1 13-2 233-6 572c0 8 0 15-3 23l10-983c4 4 3 7 3 11l-1 105c0 4-3 12 4 12 6 0 3-8 3-12l2-141 1-94 1-95 1-96 1-94c2-87 1-174 5-261l3-106c2-48 3-97 1-145-2-42-2-84-3-127v-5c-1-38-3-76-3-115h3c7 48 11 96 13 145 1 33 3 66 2 98v9c6 27 5 54 6 81 2 46 4 93 4 140l-13 1058-4 206"/><path d="M2034 2308l5-476-1 85-4 391m15-649a5 5 0 002-2c2-2 2-6 2-9l-1-3 2-107v-34l1-94 1-95v-22l1-74 1-43v-51l1-96 4-165 2-59 1-47c2-54 2-101 1-145l-2-87-1-40v-5l-1-20-2-86c6 40 10 82 12 136v14c2 28 3 56 2 84v10c4 19 5 39 5 59l1 21c2 41 4 91 4 140l-2 248-11 810-2 86-3 120-2 122-3 112-2 106v10c0 35-1 70-3 104v18l-1 7-2 2-1-2v-75l-1-86v-236-505-5-4h-1c0-3-2-4-5-4-2 0-4 1-5 3v1-14h1l5 2h2m8-1295v2l2 95 1 20v5l1 40 2 87c1 44 1 91-1 145l-1 47-2 59c-3 55-3 111-4 165l-1 96-1 51v43l-1 74v22l-1 95-1 94-1 34-1 107v10h-1l-2-1v-6-3l1-79v-26-2c0-3 1-7-4-10l-3-3v4l-4 250-6 733v11l4-10c3-7 3-14 3-20v-4l6-572 1-124 2-109a86 86 0 00-1-4l1-8 1-1h1v1l1 3v746l1 86v75c0 2 0 6 4 6s7-2 7-5l1-8v-17l3-105v-10l2-106 3-112 3-122 2-120 2-86 11-810 2-248c0-49-2-99-4-140l-1-21c0-20-1-40-5-60v-8c1-29 0-57-1-85l-1-14c-2-59-6-103-13-145v-2z"/><path d="M2051 628c-6-8-11-16-18-23a762 762 0 00-203-143c-46-22-93-40-142-55a566 566 0 00-221-22 948 948 0 00-364 122l-53 29c-3 2-7 5-11 2 2-3 2-5 5-7l21-16a1134 1134 0 01222-114 688 688 0 01281-38c40 4 80 10 118 21a942 942 0 01234 105c38 26 72 56 102 90 13 15 25 30 32 49h-3"/><path d="M1042 537l3-5 8-6c5-3 9-7 14-9a1120 1120 0 01221-114 671 671 0 01559 47 510 510 0 01174 130c9 11 21 26 29 43l-3-4-12-15a767 767 0 00-203-143c-50-24-97-42-143-56a565 565 0 00-222-22 954 954 0 00-365 122l-13 8-40 21-2 2c-2 1-4 2-5 1m264-144l-19 6a930 930 0 00-236 124l-8 6c-3 2-4 4-5 6l-1 2v2l1 1c5 3 8 1 11-1l2-1 40-22 13-7c62-33 110-56 157-73a954 954 0 01130-38 663 663 0 01154-12c46 1 92 9 143 23a942 942 0 01275 136 544 544 0 0181 77l5 7 1 1h7l-1-3c-8-21-21-37-32-49a514 514 0 00-175-131c-53-27-107-49-162-65a661 661 0 00-275-15c-32 5-66 13-106 26m672 1046l-7-7c-24-18-46-39-69-58l-50-42-78-65c-19-16-36-33-55-48-6-4-11-12-20-12-2 0-4-2-4-4-4-9-11-14-18-20-22-18-45-37-66-57l-94-82c-9-8-17-17-27-24-6-4-13-8-14-17 8 2 12 9 18 14l96 81 89 74c2 2 3 4 5-1-1-10-4-20-4-30-2-39 0-79 7-118 7-41 15-81 17-123 3-47 1-94-1-141-2-39-2-77 6-115a109 109 0 00-32-100c-18-17-34-37-55-52v-4c12 2 21 9 29 17l21 20c20 17 35 38 43 63 7 23 6 47 2 70s-6 46-4 69c3 46 4 91 3 137 0 22-1 43-5 65l-18 105c-9 44-11 89-4 133 2 11 5 19 14 26 22 17 42 35 63 53l78 67 92 77c11 10 22 22 34 31 7 6 14 12 19 22-6 1-9-1-11-4"/><path d="M1624 491c10 2 19 9 26 15l9 9 12 12c21 18 34 38 42 61 6 20 7 42 2 70-4 22-6 45-4 69 3 53 4 96 3 137 0 18-1 41-5 64l-13 78-5 28c-9 49-11 93-4 134 2 9 5 19 15 27l44 37 18 15 23 20 56 47 75 64 16 14 15 14 19 17c7 5 13 11 18 18-3 0-5-1-7-3l-2-3-5-5c-17-12-33-26-48-40l-21-18-19-15-30-26-48-40-31-26-22-19-33-28-4-4c-4-5-9-9-17-9-1 0-2-1-2-3-4-8-10-14-17-19l-2-1-66-58-45-39-48-42-7-7-21-18-2-1c-4-3-8-6-10-11l8 7 5 5 60 50 37 31 65 55 24 19c1 2 2 4 5 3 2 0 3-2 3-4v-1a350 350 0 00-4-30c-2-41 0-80 7-118 7-37 15-80 17-122 3-45 1-90-1-133v-9c-1-34-2-74 6-114a111 111 0 00-32-102l-14-14c-13-13-26-27-41-38m-4-5v7l1 1c15 11 28 24 41 37l14 15 16 19c15 25 20 51 15 79-8 40-8 81-6 115v9c2 43 4 88 1 132-2 42-10 85-17 123a524 524 0 00-5 139l2 9v1l-1-1-1-1-23-19-66-55-37-31-59-50-5-5c-4-4-7-8-13-9l-3-1v3c1 9 8 14 13 18l2 1 20 17 7 7 48 42 45 40 67 57 2 2c6 5 12 9 15 17 0 1 2 5 6 5 6 0 10 4 14 8l5 4 32 28 22 19 31 26 48 40 31 26 18 16 21 18 49 40 4 4 2 3c3 3 7 6 13 4l3-1-1-2c-5-10-13-17-20-22l-19-17-15-14-16-14-75-64-56-47-23-20-18-15c-14-13-29-26-44-37-9-7-12-15-13-25-7-41-6-84 3-133l5-27 14-78a1706 1706 0 001-202c-2-24 0-47 4-68 5-29 5-51-2-72-8-24-22-45-43-63l-12-12-9-9c-8-7-18-15-31-17zM1476 1003z"/><path d="M1478 997l-4 4-2 3 3 1h3v-3zm260 1385c26 4 51 12 76 18l1 4-63-13a1276 1276 0 00-231-25l-86-1c-43 0-86 2-129 1-5 0-10 1-16-2l28-3 91-2c6 0 8-1 10-7 5-10 12-19 19-28 18-23 36-47 55-68 10-12 20-26 33-35 3-1 5-3 7-6l1-1c-1-2-2-1-3 0-3 0-6 1-7 4-15 6-25 16-36 26-30 28-53 61-77 94-4 5-7 10-12 14-3-5 2-9 1-13 2 0 2-1 3-3l6-9c23-35 48-68 79-96 14-12 29-23 49-25 4 0 9-1 13-5 6-6 13-7 22-4 8 2 16 6 22 12 5 6 12 10 19 11 10 1 20 3 30 2l51-4c10 0 20 2 28 9 30 25 65 35 102 42 24 5 47 7 70 14 44 12 84 32 120 59 3 2 7 5 8 10-5 2-8 1-12-2a389 389 0 00-120-61c-27-7-54-10-81-15-32-6-63-17-88-38-9-7-19-14-32-11-20 3-41 4-62 4h-8c-12-3-24-5-32-16-3-4-8-6-12-8-4-3-9-4-14 0-13 11-27 20-38 33-15 17-31 33-45 51l-53 65c-1 2-4 4 1 5h5c76 0 151 1 227 11 27 3 54 6 80 12"/><path d="M1544 2207l7-4c5-6 11-7 20-4 8 2 15 5 21 12 6 6 13 10 21 11l4 1c8 1 17 2 26 1l36-3 15-1c10 0 20 2 27 9 30 25 67 35 103 42l24 5a356 356 0 01165 68h1c2 2 5 4 5 7-2 1-4 0-8-2-10-9-20-15-30-21-35-20-62-33-90-40-17-5-35-8-52-11l-30-5c-37-7-65-19-87-38-9-7-20-14-33-11-19 3-38 4-62 4h-8c-12-3-23-5-31-15-2-4-6-6-10-8l-2-1c-6-3-11-3-16 1l-9 7c-10 8-21 16-29 25l-18 20-28 32-13 15-39 50h-1l-2 5 4 3h6c72 0 150 1 226 11l15 2a855 855 0 01119 22l21 6-17-4-43-9a1270 1270 0 00-231-25l-64-1h-22l-57 1h-76l16-1 36-1 55-1c7 0 10-2 12-8 5-10 12-19 18-28l14-17 41-51 7-8c8-10 16-19 27-27 2-1 5-3 6-6h1c0-1 2-2 1-3l-3-2-3 1c-3 0-6 1-8 4-13 6-24 16-34 25l-1 2a634 634 0 00-87 105l1-3 1-5 3-3 1-3 4-6c22-33 47-67 80-95 13-12 28-23 47-24l7-2m13-13l-9 6c-3 3-7 4-11 4-21 2-36 14-50 26-33 28-58 63-80 96l-4 6-2 3v1l-1 1h-3l1 2-1 4c-1 3-2 6 0 10l1 2 2-2c6-4 9-9 13-14 23-32 47-65 76-93l2-2c10-9 20-18 33-24-10 8-18 17-26 26l-7 8-41 51-14 17c-7 9-14 19-19 30-1 4-3 5-8 5l-55 1-36 1c-8 0-17 0-29 3l-7 2 7 2c6 2 10 2 14 2h75l57-1h22l64 1a1759 1759 0 01230 25l43 9 21 4 3 1-2-9h-1l-23-6-53-13c-22-4-45-7-67-9l-14-2c-77-10-154-11-227-11h-5l1-1c12-18 26-34 40-50l12-16 28-31 18-20c8-9 18-17 28-25l9-7c4-3 8-3 12 0h2c3 2 7 4 9 7 9 12 21 14 34 17h8c24 1 44-1 63-4 12-2 21 4 29 10 23 19 52 32 89 39l30 5c17 3 35 6 52 11a381 381 0 01119 60c3 3 8 5 14 1h1v-2c-1-5-5-8-8-10l-1-1c-37-27-77-47-120-59-15-5-31-7-46-10l-24-4c-35-7-72-16-101-42-9-6-19-10-31-9l-14 1-37 3c-8 1-16 0-24-2h-4c-8-1-14-4-19-10-6-7-14-11-23-13-5-2-11-2-15-1M1400 2339z"/><path d="M1401 2335l-6 6h8l-1-3zm606-1938c-16-22-35-40-56-58l-39-32c5-3 8 1 11 3 18 10 34 22 50 35 19 15 37 32 50 53 15 27 19 54 2 81-4 8-10 12-18 12-5 0-10-3-14-4-21-8-39-20-58-30a2902 2902 0 00-163-78 625 625 0 00-253-47h-18c-1 0-3 0-4-2-1-3 1-4 3-5l7-3c31-3 61-6 92-2h5c21 3 43 5 64 9a1212 1212 0 01218 85l101 53 15 7c6 3 9 0 11-4 7-12 12-24 8-38-3-12-7-24-14-35"/><path d="M2013 488l-6 1c-4 0-7-2-11-4h-3l-42-21-15-8a2921 2921 0 00-163-79 619 619 0 00-267-47h-5l-2-1 2-2 1-1 5-2c34-3 62-5 92-2h5l19 3a469 469 0 01111 26 1212 1212 0 01218 100l34 18 10 5 5 2c6 3 11 1 14-5 6-11 12-24 8-39-3-14-8-26-15-36-15-22-36-41-55-58l-27-23-9-6 3 1 2 1c18 11 35 24 49 35 17 13 37 30 50 53 17 28 17 54 3 79-3 5-7 9-11 10m-509-167l-4 2h-1c-4 2-5 5-4 7 1 4 4 4 6 4h18a615 615 0 01252 47c20 8 41 17 68 31l95 47 15 8c14 8 28 16 43 22h2c4 2 8 4 13 4 9 0 15-4 20-13 16-26 15-53-2-83-14-23-35-41-51-54-15-12-31-25-50-35l-2-1c-2-2-6-5-11-2l-2 2 2 2 12 10 27 22c19 17 40 35 55 58 6 9 11 20 14 34 4 13-2 26-7 36-3 4-5 5-9 3l-6-2-9-5-34-18-67-35a1215 1215 0 00-218-85l-45-6-20-3h-5a437 437 0 00-95 3m-457 1789c5-9 13-13 21-18 28-20 60-31 92-43 40-14 81-24 123-30a1175 1175 0 01259-10 1426 1426 0 01298 51c40 12 79 24 116 44 13 8 26 16 35 29-4 0-7-2-11-5-10-8-22-16-34-21a1294 1294 0 00-419-89 1273 1273 0 00-272 16c-37 7-74 17-109 31-22 8-45 17-66 29-11 7-21 16-33 21v-5"/><path d="M1049 2110c4-6 9-9 15-13l5-3a646 646 0 01215-73 1164 1164 0 01258-10 1415 1415 0 01297 51c41 12 80 24 116 44 11 6 23 14 31 24l-4-3c-12-10-24-17-35-22a1301 1301 0 00-419-89 1292 1292 0 00-274 16c-40 8-76 18-108 31l-6 2c-20 8-41 16-61 27l-13 9c-6 4-11 8-17 10zm128-68l-17 5c-35 13-66 24-93 43l-5 3c-6 4-13 9-17 16h-1l1 9 3-1 20-13 13-8c19-11 40-19 60-27l6-2a600 600 0 01180-42 1288 1288 0 01319 6 1296 1296 0 01299 78c11 5 23 12 34 21 4 3 7 5 12 5l4-1-2-3c-10-13-23-21-36-29a1223 1223 0 00-537-98c-44 2-89 6-137 13-36 5-72 13-106 25M1991 2133z"/><path d="M1988 2131l3 5 2-2 6-5zM1305 715c3-20 5-40 11-60l18-61c6-21 13-40 26-57 13-19 30-28 51-32l60-6c15-2 27-8 36-19 1-2 1-5 5-2-4 12-11 21-25 23l-11 3-61 9c-18 3-34 10-45 25-7 10-13 21-18 33l-16 53c-9 26-15 52-19 79-3 25-6 49-11 73-5 27-9 54-5 81 6 40 10 81 12 121 0 4 1 9 3 12l-1 4c-2 19 1 39 1 58l3 150c0 23 0 46 2 69 2 10 1 21 2 31-4 1-6-2-6-5l-2-24c-4-44-5-88-7-132l-2-101c-1-20-1-41-5-62l1-5c1-7-2-12-2-18-2-34-7-67-10-101-3-24-2-47 4-70 5-23 8-46 11-69"/><path d="M1307 715v-1c3-19 5-39 11-58l9-33 9-29c7-23 15-41 26-56 11-17 28-27 50-30 20-4 40-6 59-7 16-2 28-8 37-20-4 11-11 17-21 18l-6 1-5 2-61 9c-21 3-37 12-47 26-7 10-13 21-18 33l-11 35-5 18c-10 30-16 55-19 80v4c-3 23-6 46-11 69-5 26-9 53-5 82 7 47 10 85 12 120l3 13-1 2v37l1 22 1 47 1 103 1 21c0 16 0 32 2 48l2 21v8l-1-1-1-2-1-16-1-8-6-107-1-25-1-43-1-58-1-18c0-14-1-29-4-44l1-5-1-12-1-6c-1-23-4-46-6-68l-4-33c-3-24-2-47 4-70 5-24 9-49 11-69zm90-208c-16 5-29 14-39 29-11 15-19 33-26 57l-9 29-9 33c-6 19-8 39-11 59-2 21-6 45-11 69-6 24-7 47-5 72l4 33c3 22 6 44 7 67l1 7 1 10-1 6c3 15 4 30 4 45l1 18 1 57 1 44 1 24 5 107 2 9 1 15c0 2 0 4 2 5 1 1 3 3 6 2h2v-12l-2-21-2-48v-21c-2-35-2-69-2-103v-47l-1-22c-1-12-2-24-1-36l1-4-3-12c-2-35-5-74-12-121-4-28 0-55 5-80 5-23 8-47 11-70v-4c4-24 9-49 19-78l5-19 11-35c5-11 10-22 17-32 10-13 24-21 45-24l60-9 6-2 5-1c14-1 22-9 27-25v-1l-1-1c-2-1-3-2-5-1l-3 3c-8 11-20 17-34 18a822 822 0 00-74 11m459 1025l-26-66c-11-28-21-56-35-82a96 96 0 00-62-51c-23-6-47-7-71-6-32 1-64 5-96 11-55 9-109 22-164 35l-35 8c5-8 10-11 17-13 35-11 70-19 106-27 34-7 68-14 102-18 35-3 70-7 105-5 19 1 38 3 56 11 14 6 27 15 38 27 12 15 21 32 29 50 19 43 37 87 51 132 14 44 24 88 15 135l-4 1 1-13a613 613 0 00-27-129"/><path d="M1372 1378c4-4 8-6 13-8 32-10 65-18 97-25l8-2c32-7 67-14 103-18h4c33-4 66-7 100-5 18 1 37 3 55 11 15 6 27 14 37 26 12 14 20 30 29 50 21 47 38 90 51 131a268 268 0 0116 123 613 613 0 00-53-196l-8-21c-8-20-16-42-27-61a98 98 0 00-63-52c-24-6-48-7-72-6-28 1-58 4-96 11-54 9-107 21-164 35l-23 5-7 2m15-13l-3 1c-8 3-14 6-19 14l-3 4 5-1 13-3 23-5c57-14 109-26 163-35 39-7 68-10 97-11 22 0 47 0 70 6 27 7 47 24 61 50 10 19 18 40 26 60l9 22c7 19 17 42 25 66 9 28 16 53 21 77a262 262 0 015 60v7l8-2v-2c10-48-1-94-15-136-13-41-30-85-51-132-9-20-17-36-30-51-10-12-23-21-38-27-19-8-39-10-57-11-34-2-68 1-100 5h-5c-36 4-70 11-102 18l-9 2c-31 7-63 14-94 24m1045 1231M2429 2594l1 3 5 2-2-6-1 1z"/><path d="M2436 2602c3 12 0 23-7 34-6 9-14 17-24 23-15 8-23 22-26 40l-5 26a76 76 0 01-97 54c-4-2-7-3-8-8a1254 1254 0 00-110-225c-18-32-38-62-58-92-3-5-9-8-9-15 3 0 4 2 6 3a1139 1139 0 01175 324c1 5 3 7 8 8 11 3 20 0 30-2 28-6 44-23 51-50l6-31c5-18 16-32 31-41 19-11 30-27 28-50 0-2 0-4 2-5l3 1 4 6"/><path d="M2322 2777c-15 5-30 5-44 0-4-1-6-3-7-7a1275 1275 0 00-110-225 1679 1679 0 00-66-103l1 1a20 20 0 000 1c7 6 13 14 19 22l1 2a1150 1150 0 01155 299c1 5 4 8 10 9 9 2 17 1 25-1l5-1c29-6 46-23 53-52l3-15 3-16c4-16 15-30 31-40 20-12 30-29 28-51l1-3c1 3 3 4 5 6 2 10-1 20-8 32-6 10-14 17-23 22-15 8-24 22-27 41-1 8-2 16-5 26a75 75 0 01-50 53m-232-339v1c0 6 3 9 6 12l3 4a1679 1679 0 01168 317c2 5 5 7 9 9 19 7 41 5 60-5 20-11 35-29 40-51l6-26c2-18 10-31 24-39 10-5 18-13 25-23 8-13 10-24 7-36v-1l-4-5v-1l-5-2-1 1c-2 2-3 4-3 8 1 20-7 35-27 47a68 68 0 00-32 42l-3 16-3 15c-7 27-23 43-49 49l-6 1c-8 2-15 3-23 1-4-1-6-2-7-6a1154 1154 0 00-155-300l-2-2c-5-8-11-16-19-23v-1c-2-1-4-3-7-3zm-382-711c-38 1-76 0-114-1-26-1-52-3-78-8-23-5-43-14-57-33-15-19-30-39-42-60-24-41-36-85-36-132l2 1 1 8c7 24 13 49 22 73 14 40 37 75 65 107 7 8 15 16 26 20 14 6 30 8 45 11 31 4 63 4 94 5 63 2 126 1 188-4 1-1 3-1 4 2-6 3-12 4-19 5-33 5-67 5-101 6"/><path d="M1708 1727v-2c-32 1-68 0-114-1-21-1-50-2-78-8-24-5-42-15-56-32-18-23-31-42-41-60-21-36-33-74-35-115l2 7a356 356 0 0083 167c9 11 17 17 27 21 15 6 32 9 46 11 26 4 53 4 78 5h16c76 2 133 1 188-4l-15 3c-28 5-57 5-85 6h-16zm-329-236v2c0 48 12 92 36 133 11 19 24 37 42 60 14 18 33 29 58 34 29 6 58 7 79 8 46 2 82 2 114 1h16c28-1 57-1 85-6 7-1 14-2 20-5l1-1v-1c0-4-2-5-6-5-54 5-112 7-188 5h-16c-25-1-52-2-78-6-13-2-30-4-45-10-8-4-16-10-25-20a352 352 0 01-82-165l-4-14-1-5v-4zm-311 577c-2 3-4 7-9 8-3-6 1-9 3-13 14-28 32-54 50-80 14-20 30-38 50-53 16-12 34-20 51-29 20-11 41-12 63-13 9-1 19 0 28 2 28 9 55 20 81 32 19 9 38 17 58 23 18 5 37 8 55 14 15 4 28 12 32 28 1 2 3 5-2 6-6-12-16-21-29-25l-24-8c-33-6-64-17-94-31-20-9-40-18-62-25-21-6-42-9-64-6a222 222 0 00-138 95l-49 75"/><path d="M1060 2073l2-7 2-2c13-26 29-50 45-73l4-7c15-21 31-39 50-53 11-8 23-14 36-20l15-8c20-10 40-12 62-13 10-1 19 0 27 3 30 8 58 20 81 31a422 422 0 00114 37c17 5 27 14 30 27l1 1v1c-7-12-17-20-29-24l-5-2-20-6c-30-5-60-16-93-31-23-11-43-19-62-25-24-7-45-9-65-6a221 221 0 00-140 96l-36 55-13 19-1 2c-1 3-3 5-5 5m168-181l-16 7-15 8c-13 6-25 13-37 21-18 14-35 32-50 54l-4 6c-16 24-33 48-46 74l-1 2c-2 3-5 7-2 13l1 1h1c6-1 8-5 10-8l1-1 13-20 36-55a218 218 0 01137-94c19-3 39-1 63 6 18 6 38 14 62 25 32 15 63 26 93 32l20 5 4 2c13 4 22 12 29 24v2l2-1c6-2 4-6 4-8l-1-1c-5-18-21-25-33-29l-30-8-25-6c-21-6-41-15-58-23-24-11-52-23-82-32a180 180 0 00-76 4m855 569l10 11 25 40c27 45 47 93 60 144 5 19 12 37 22 54s20 34 26 52c4 13 8 25 7 38 0 5-1 10-6 13-15 6-25 19-37 29-23 18-49 28-78 19-10-3-20-3-31-3-17 0-35 1-52-3-3 0-7 0-8-4 2-2 5-1 7-1 16 4 33 3 49 1 13-1 27-1 40 4 8 3 18 3 27 1 21-4 38-15 52-30 6-7 13-12 22-16 10-5 11-7 8-18-7-25-17-50-31-73-10-16-19-34-24-53l-13-45c-8-21-15-41-24-60-16-34-34-68-54-100h3"/><path d="M2155 2855c16-5 31-15 43-28 6-6 13-11 21-15 11-5 12-9 9-20-9-29-19-53-31-74-12-19-20-36-24-52l-1-6-12-40-3-7c-7-17-13-36-22-53a843 843 0 00-44-86l10 15a596 596 0 0175 168c4 18 12 36 22 54 12 19 20 35 26 52 4 11 8 24 7 37 0 6-2 9-5 11-11 5-19 12-27 20l-11 9c-25 20-50 27-76 19-9-3-18-4-31-3h-1c-17 0-34 1-50-3h-3l-3-1h4c18 4 36 3 49 1 11-1 25-1 39 4 8 3 17 3 28 1a100 100 0 0011-3m-78-395l1 3c18 28 35 59 54 99 8 17 15 35 21 53l3 6c5 13 8 27 12 41l1 5c4 17 12 34 24 53 13 21 23 44 31 73 3 9 2 11-7 15s-16 10-22 16a94 94 0 01-52 30c-10 2-18 2-25-1-15-6-30-5-41-4-14 2-31 3-48-1-3 0-6-1-9 1l-1 1v1c1 5 5 6 8 6h2c17 4 34 4 51 3h1c12 0 21 1 30 3 27 8 54 2 80-20l11-9c8-8 16-15 26-19 6-3 7-10 7-15 1-14-3-27-7-38-6-18-15-34-26-53-10-18-18-35-22-53a551 551 0 00-75-169l-10-16-11-12h-1zm-783-1028c17-12 34-22 54-30-1 5-4 7-7 9l-55 45c-20 16-25 37-22 62 5 51 15 102 22 153l15 106c-9-4-9-11-10-17l-5-31c-3-11-6-21-7-32 0-15-4-29-7-44l-7-42c-4-18-6-37-9-56-4-23-5-46-3-70l4-12c8-17 22-29 37-41"/><path d="M1298 1773c-4-3-4-7-4-12l-1-1c0-10-2-20-5-32-3-10-6-21-6-31l-5-29-3-15-7-42-7-40-2-16c-4-27-5-49-3-70l4-11c8-18 23-30 37-40 16-12 32-21 48-28l-3 2a38 38 0 00-1 1l-12 9-43 36c-19 16-26 36-23 64 3 32 8 64 13 94l8 60 11 71 4 30m53-374l-3 1c-19 7-36 17-55 31-14 10-29 23-38 41l-4 13c-2 21-1 43 3 70l2 17 7 39 7 42 3 16c2 9 4 19 4 28 1 11 4 22 7 32 3 12 4 22 5 31v1c1 6 1 14 11 18l3 2v-4l-5-35-10-71-9-59c-5-31-10-63-13-95-3-26 4-45 21-60l44-35 12-10 1-1c2-1 5-3 6-8zM1222 295c21-7 43-13 65-18 8-1 16-3 24-1-4 3-7 4-11 5l-43 12c-42 12-84 27-123 47-10 5-20 10-31 12-9 2-12-1-12-10 0-4 2-7 4-10 4-6 8-13 13-17 15-11 29-22 46-30a687 687 0 01174-53v3c-13 2-25 7-37 10-48 13-95 29-139 52-18 9-33 21-46 35-3 3-6 6-5 12l29-13c30-14 60-26 92-36"/><path d="M1108 348l-5 2h-8l-2-7 4-10v-1c4-6 8-11 13-15 14-12 28-23 44-30a678 678 0 01161-51l-24 7c-43 12-93 27-140 52-17 9-32 20-47 36-3 3-6 7-5 14v2l3-1 9-4 20-9a701 701 0 01156-54l17-2a42 42 0 01-5 2l-17 5-26 7c-46 13-86 29-123 47l-2 1c-7 3-15 7-23 9m130-98a676 676 0 00-20 6c-26 9-47 18-65 27-17 8-31 19-46 30-6 5-9 11-13 17l-1 1c-2 3-4 7-4 11 0 6 1 9 4 11 2 2 6 2 11 1 10-2 20-7 29-12h2c37-18 77-34 123-47l25-7 17-5 12-5 4-3-4-1c-9-2-18 0-26 1-22 5-45 11-65 18h-1c-30 10-61 22-91 36-6 4-12 6-19 9l-7 3c0-3 2-5 4-7 15-15 29-27 46-35a733 733 0 01150-55c8-3 16-6 25-7h2l1-7h-3c-28 3-57 9-90 20m777 1474c-13 5-24 10-34 17-30 22-64 37-99 48l-55 16a541 541 0 00-121 62c-6 7-9 15-8 23 0 8 1 16 3 23l14 67c2 8 3 15-1 23-4-8-5-16-8-24-8-27-15-53-19-81-3-20 4-36 22-47 21-13 44-23 66-34 28-13 58-21 87-29 35-9 67-23 98-41l25-17c9-5 18-9 30-6"/><path d="M1881 1785c27-9 54-21 80-36l13-9 12-8c6-4 13-7 21-7-10 4-19 8-28 14a333 333 0 01-125 56l-28 8c-32 10-62 26-91 41-12 7-22 14-30 22-7 6-10 14-9 24 0 8 1 16 3 23l7 34 7 34c1 5 3 11 1 17l-3-12-3-8c-9-29-15-56-19-80-3-20 4-35 21-45 17-11 35-19 53-28l13-6c28-13 57-21 86-28l1-1a355 355 0 0018-5m115-63l-12 6-12 9-13 8c-32 19-64 33-97 41l-1 1c-29 7-59 15-86 28l-14 7c-18 8-36 16-53 27a46 46 0 00-23 49 503 503 0 0027 106l2 3 2-3c5-8 3-17 1-24l-7-34-7-33c-2-8-3-15-3-23 0-9 2-16 8-21 8-8 17-15 29-21 28-15 57-30 88-40l2-1 28-8 27-8c39-12 72-28 100-48 10-8 21-12 34-17l6-2-6-2c-8-2-14-1-20 0m-910 397l1-3c22-14 45-25 70-33 38-13 77-23 117-28 46-7 92-12 138-16 16-1 32-1 47-3 42-3 83 0 124 4 22 2 44 7 66 10l-2 4-18-3a862 862 0 00-176-8l-37 2-101 11c-45 6-88 14-131 26-30 9-58 20-85 34-4 2-8 6-13 3"/><path d="M1088 2118a1 1 0 010-1c25-14 47-25 69-32 44-14 82-23 117-28 47-7 94-12 138-16l26-1 21-2a688 688 0 01166 10l21 3h-4l-13-2a866 866 0 00-176-8l-16 1-21 1-34 4-68 7c-52 7-93 15-131 26a479 479 0 00-95 38m68-37c-22 7-45 18-70 33-2 1-3 3-2 6v1h1c5 2 9 0 12-2l2-1c26-14 54-25 85-34a856 856 0 01198-33l34-4 21-1 16-1 53-2a863 863 0 01135 12l7 1 4-8h-3l-23-4c-14-2-28-5-43-6-49-5-87-6-124-4l-21 1-26 2c-44 4-91 9-139 16-35 4-73 13-117 28zm-117 210h-5l2-139 7-561h3l-2 377v13c1 43-1 86-2 129v5l-3 176"/><path d="M1037 2289v-40l1-97 6-487-3 303v13c2 35 1 72 0 107l-1 21v6l-3 174zm4-700v2l-8 561v97l-1 44h9l3-179v-4l1-22c1-35 2-72 1-107v-13l2-377v-2zm14-943c3-17 9-32 15-48 3-6 8-11 12-16 11-9 23-17 36-23 16-8 33-16 47-28l31-25c16-11 34-19 52-27 22-9 45-16 69-16l23-1h24c-10 3-21 4-31 4-17 1-34 2-50 6a293 293 0 00-90 44c-20 19-44 35-70 48-10 6-20 11-30 19-20 16-26 38-30 61-6 30-7 60-7 89-1 37 2 75 2 112l-2-1-5-62c-1-46-2-91 4-136"/><path d="M1345 463l-7 1h2l5-1m-288 184c3-18 9-34 15-48 2-5 6-10 12-15 10-9 22-17 35-23 16-8 33-16 47-28l10-8 22-17c15-12 33-19 51-27a175 175 0 0134-11 296 296 0 00-91 44c-19 18-42 34-70 48-8 5-20 11-30 19-21 17-27 41-31 63-6 31-7 62-7 89-1 21 0 41 1 61v18l-2-30v-14c-1-40-2-81 4-121m212-178l-22 9a255 255 0 00-74 44l-10 8c-14 11-30 19-46 27-13 7-25 15-36 24-6 5-11 11-13 16-6 15-12 31-15 49-6 41-5 82-4 122v14l3 43 1 19 1 2 6 1v-2l-1-51-1-61c0-26 1-58 7-88 4-22 10-45 29-60l30-19c28-14 51-30 71-49l21-15c21-11 44-22 68-28 14-3 29-5 49-6 8 0 20-1 31-4l13-4h-13l-7-1-17 1-23 1c-17 0-33 3-48 8m610 1719h5l86-8c10-2 19-4 32-2-7 6-13 7-19 8-30 7-60 10-90 13-30 4-58 1-86-10-26-9-50-21-74-32-12-6-21-15-25-28 3-2 5 0 6 2 6 6 12 12 20 15 22 9 41 22 64 29 26 9 52 20 81 13"/><path d="M1990 2182l-5 2h-2c-25 6-50 9-75 11l-16 2c-30 4-58 0-85-10-24-9-48-20-74-32-11-6-19-14-23-25l2 2c6 6 13 12 21 16l27 13c12 6 24 12 37 16l6 2a138 138 0 0081 11l11-1 76-7 5-1c6-1 13-2 20-1l-6 2m-282-55h-1l-2 1 1 2c4 13 12 22 26 29 26 12 49 23 74 32 28 10 56 14 87 10l16-2c24-2 50-5 75-11h1c6-1 12-2 18-8l3-3-4-1c-10-2-19 0-27 1h-5c-25 4-51 6-76 8l-10 1h-5c-26 6-50-2-74-11l-7-2c-12-4-24-10-36-16l-27-13c-8-3-14-9-19-15-2-1-4-4-8-2m116-454l-19 2a571 571 0 01-245-1c-10-2-20-4-30-10 3-3 5-2 7-2 12 4 25 6 38 9 26 6 52 7 78 9s51 0 77-1l33-4c17-1 34-6 52-8 20-2 22-11 22-27v-5c-2-12-1-24 0-36 2-14 3-28-1-42-7-23-22-41-32-63-2-5-5-1-8-1 4-8 7-9 12-3l3 4c4 12 12 22 18 32 8 12 14 26 14 40v86c0 12-6 18-19 21"/><path d="M1801 1489l1-1c1 0 2 0 4 3l3 4c3 9 9 18 14 26l5 6c8 13 13 27 13 39v86c0 11-6 16-17 19l-9 1-10 1a565 565 0 01-244-1l-3-1c-8-1-16-3-24-7h2l23 6 15 3c22 5 45 7 67 8l12 1c18 2 37 1 55 0l22-1 18-2 15-2c10 0 19-2 28-4l24-4c23-2 24-14 24-29v-5c-2-13-1-25 0-35v-3c2-13 3-27-1-40-4-14-12-27-19-40l-13-24c-1-3-4-4-5-4m0-5c-3 1-5 4-7 8l-1 2 3 1 4-1c1-1 2-1 2 1 4 9 9 17 14 24 7 13 14 25 18 39 4 13 3 26 1 39v2a161 161 0 000 41c0 16-2 23-20 25l-25 4a215 215 0 01-43 6l-17 2-22 1c-18 1-37 2-55 0l-12-1a395 395 0 01-104-17c-2-1-5-1-8 3l-2 1 2 2c9 5 19 8 28 10h3a570 570 0 00246 1l9-1 10-1c13-3 20-10 20-23v-86c0-13-5-27-14-41l-4-7c-5-7-11-16-14-25l-3-5c-2-2-5-4-8-4h-1M1796 1493z"/><path d="M1789 1489l8 8 1-3 2-3h-4zm-332-385l73 59 65 54 66 55c12 10 24 19 34 32-4 1-6 0-9-2l-25-21-33-28-32-26-44-36c-17-12-32-27-49-40l-35-30-38-32-35-29-30-24c-2-3-5-5-4-9 2 0 4 1 5 3l91 74"/><path d="M1691 1302c-1 0-2 0-3-2l-12-9-14-11-12-10-21-18-19-16-13-10-16-14-27-22-31-25-18-15-16-14-20-17-25-21-13-10-35-29-9-8-21-17-3-4 2 1 184 150 45 37 10 9 56 47 9 8c8 6 16 13 22 20m-332-277l-1 2c-1 5 3 8 5 10h1l20 17 10 8 35 29 12 10 26 21a349 349 0 0135 31l19 15c9 9 20 17 30 25l27 22 16 14a408 408 0 0033 26l21 18 12 10 13 11 12 10c3 2 6 4 11 1l2-1-2-2c-7-9-16-16-24-23l-9-8-56-48-11-8-45-37-183-150-7-3zM1361 1027h-1z"/><path d="M1364 1020l-9 10 6-1h1l1-1zm357 756c-45 2-90-2-135-10-22-4-45-3-65 9l-19 11c-9 5-18 8-29 8l-42 2c-9 1-17 2-25 6-6 3-8 9-4 15 2 3 5 6 10 7l24 8v3c-11 0-22-3-32-8-8-4-9-10-9-17s3-12 9-14c5-2 10-5 15-5 15 0 31-4 47-2 14 1 27-4 39-12s24-15 39-17c15-3 31-2 47 0a553 553 0 00159 7c9 0 17-3 26-2-3 2-5 4-8 4-15 4-31 7-47 7"/><path d="M1430 1833c-8-2-17-4-26-8-6-3-7-9-7-15 0-7 3-10 8-12l2-1c4-2 8-4 12-4l18-1c9-1 19-2 29-1 16 1 29-6 40-12 12-8 24-15 38-17 15-2 30-2 47 0a561 561 0 00159 7l10-1 9-1a16 16 0 01-2 0c-15 4-30 6-46 7-42 2-86-1-134-10-27-5-49-2-67 10l-9 4-10 6c-9 6-18 8-28 8-16-1-31 1-42 2l-3 1c-8 0-16 1-23 5-4 2-6 5-7 8s0 7 2 10c3 4 7 7 11 8l17 6zm-18-43l-6 3-3 1c-7 3-10 8-10 16 0 7 1 15 10 19 11 5 22 8 33 8h3l-1-6-8-3-18-6c-3-1-6-3-8-6s-2-5-2-7l5-5c7-4 14-4 21-5l3-1 42-2c10 1 21-2 30-8l10-6 9-5c18-11 38-14 64-9 48 9 93 12 135 10 16 0 32-3 47-7 3 0 6-2 10-5l3-3h-4c-7-1-13 0-18 1l-9 1a557 557 0 01-159-7c-17-2-33-3-47 0-15 2-28 9-40 17-10 7-23 13-38 12-10-1-20 0-29 1l-18 1-7 1m-341 26c25-25 62-17 80 7 14 18 14 38-2 60l-2 3-1-1 1 1-2 3-1-1 2-3 2-3c0-5 2-9 4-13 12-34-16-63-47-59-18 3-31 14-37 31s-4 32 9 45c14 15 31 20 51 17-3 6-10 8-16 8-11 1-22-2-32-7-12-6-22-16-25-29-3-21-2-42 16-59"/><path d="M1119 1908l-7 1c-10 1-20-1-31-7-13-7-22-17-24-28-3-16-4-38 15-56 11-11 24-16 39-15s29 9 39 22c12 16 12 33 1 51l2-3 1-3a45 45 0 00-49-62c-19 3-32 14-39 32s-4 34 9 47c13 14 30 20 49 18l-5 3m-28-107c-8 3-15 7-22 14-20 19-19 42-16 60 3 12 12 23 26 31 12 6 23 8 33 7 7 0 14-2 18-9l1-1-3-3-1 1c-19 3-35-3-49-17a38 38 0 01-8-42c6-17 18-27 36-30 14-2 29 4 38 15a41 41 0 015 44l-2 5-5-7 4 12-2 3v1l-2 2c-1 1 1 3 1 3l3 2 2-5c2 0 3-2 3-3 16-21 17-42 2-62a59 59 0 00-42-23c-7-1-14 0-20 2m894-443c-1 1-4 2-5 0-5-6-14-10-20-17-12-14-27-27-41-39l-56-50c-20-17-38-36-58-54l-28-24-30-27c11 0 14 6 19 10l84 71 43 39c29 24 57 49 82 77 4 4 8 8 10 14"/><path d="M1983 1357h-1l-10-9-10-8c-10-12-22-23-34-33l-8-7-20-18-36-32-28-26-30-27-10-10-17-15-20-17-5-5 7 6 4 3 83 71 22 19 22 20a1093 1093 0 0191 88m-241-213l4 4 10 10 20 18a221 221 0 0128 24 785 785 0 0158 53l35 32 20 18 8 7c12 10 24 21 34 32l10 10 10 8c2 2 5 2 8 0l1-1-1-2c-2-6-6-10-10-15-27-28-57-55-82-77l-22-19-22-20-84-70-3-3c-3-4-8-8-17-8zm-681 1102l2-3 29 19c47 26 97 46 147 64 16 5 32 9 49 5l30-7 12-1c-3 6-8 8-13 10-27 11-55 10-83 0-31-10-62-22-91-36-23-11-46-21-65-37-6-4-14-7-17-14"/><path d="M1308 2334c-23 7-47 6-73-2-31-11-61-23-92-37l-3-2a325 325 0 01-66-38c-4-2-8-5-10-9l7 5 20 13c42 23 88 43 147 64 20 6 35 8 50 5a648 648 0 0039-8c-3 3-6 4-9 5l-2 1a110 110 0 01-8 3m-246-93l-3 4v1c3 7 8 10 13 13l4 3c19 15 41 25 62 35l4 1c30 15 61 27 91 37 31 11 59 11 85 0l2-1c4-2 9-4 12-10l2-2-3-1-13 1-31 7c-14 3-28 1-47-5-59-21-105-41-147-64l-20-13-9-5zm151-605c6 13 7 27 4 41-2 5-2 9-2 14l-3 1c1-16 5-31-1-47-5-13-12-22-25-25-16-4-33-2-48 7s-22 23-20 41c2 15 9 27 24 33 6 3 12 6 19 7 7 3 15 1 23 1v-3c3 1 2 2 0 3-1 5-5 6-9 8-11 4-22 1-32-3-9-2-17-6-23-13-16-18-16-38-9-59 2-6 7-11 13-16 15-12 32-14 50-13 17 0 32 6 39 23m-41 79c-9 3-18 1-28-2l-1-1c-7-2-15-5-21-12-14-16-17-35-9-58 2-4 6-9 12-14 15-12 33-14 49-13 19 0 31 7 37 22 5 11 7 23 5 34 0-9 0-17-3-26-6-15-14-24-26-27-19-4-36-2-50 7-16 10-24 25-21 43 2 17 11 29 25 35l3 2 16 5c5 2 11 1 16 1h5l-5 3a40 40 0 00-4 1m-30-101c-7 3-13 6-19 11-7 5-12 10-14 16-8 24-5 45 10 62 6 7 16 11 23 13l1 1c11 3 21 6 33 2l2-1c3-1 6-3 8-7v-1c1 0 2-1 2-3s-2-3-3-3l-3-2v5h-7c-5 0-9 1-14-1l-16-5-3-1c-13-6-20-16-22-32-2-17 4-30 19-39 14-9 29-11 47-7 10 3 18 11 23 24 4 12 3 23 2 35l-1 11v3l6-2 1-2a162 162 0 002-13c3-14 2-29-4-43-7-16-21-24-41-25-10 0-21 1-32 4m825-737l-8 21h-5l8-24c2-4 2-9 1-14-5-18-16-32-35-36-20-5-38 3-53 18-3 4-6 9-8 15-7 24 6 48 23 59 3 1 7 2 7 6-9 0-14-1-19-5a56 56 0 01-1-91c13-10 27-11 43-11 30 0 55 31 47 62m-73 43c-7-1-11-2-15-5a55 55 0 01-23-44c0-17 8-33 22-44 13-10 27-10 42-10 13 0 27 7 36 18 9 12 12 27 9 41l-8 20 1-5 6-16c2-5 2-10 1-15-6-21-18-34-36-38-20-5-39 2-55 19-4 4-7 10-9 16-8 24 7 50 24 61l3 1 2 1m-3-104a58 58 0 00-39 55c0 18 9 36 24 47 6 5 13 6 21 6h2v-2c0-5-3-6-6-7l-2-1c-16-10-29-33-22-56 1-5 4-10 8-14 15-16 32-22 51-18 17 4 28 15 33 35 1 4 1 8-1 13l-6 16-3 10h9v-1c4-7 7-14 9-22 4-15 0-31-10-44a50 50 0 00-39-20c-10-1-20 0-29 3m-201 1880c13-19 207-146 229-149l-229 149"/><path d="M1720 2674c44-32 127-87 172-112l-72 46-100 66m196-129c-31 10-214 130-228 150l-6 9 9-6 132-86 97-64 8-5-10 2h-2m-308-641l-76-7c-19-2-38-3-56-7-30-6-57-17-83-33-4-2-9-5-12-9 4-1 7 0 10 1l37 15c19 10 40 16 61 19 24 4 49 6 74 9 17 3 35 5 52 9l-1 4-6-1"/><path d="M1608 1902l-28-3-48-4-11-1-45-6c-27-5-54-16-82-33h-1l-8-5 5 1a623 623 0 0037 15c19 9 40 16 61 19l45 6 30 4 8 1c14 1 28 3 41 6v1l-4-1m-230-55l2 2c3 5 7 7 11 9l1 1c29 17 56 28 83 33 15 3 31 5 46 6l10 1 49 4 28 3 3 1h3l2 1 1-9h-2c-14-4-29-6-43-8l-8-1-30-3-45-6c-21-3-41-10-60-18l-24-11-13-5c-3-1-7-2-11-1zm498-1088c-23 0-41-14-48-33-6-15-6-30 5-44s26-20 43-18c16 1 32 12 38 26 6 17 1 34-12 46a28 28 0 00-2-1l7-14c7-15 3-32-9-42a40 40 0 00-53 4c-14 14-14 35-1 50 8 10 17 16 29 20 2 1 5 1 6 4-1 2-2 2-3 2"/><path d="M1876 757c-21 0-39-13-46-32-6-17-5-31 5-42 10-13 24-19 41-17 15 1 31 12 36 25 5 14 2 28-7 39l4-8c7-16 3-34-10-44a42 42 0 00-56 4c-14 15-14 36-1 53a66 66 0 0032 21l2 1m-21-93c-9 3-17 8-24 16-10 13-12 28-5 47 7 20 27 34 50 34 2 0 4-1 5-3v-1c-1-4-4-5-6-5l-1-1c-11-3-21-10-28-19-13-15-12-34 0-47 14-14 36-16 51-4 11 9 14 25 8 39l-4 9-3 5v1l1 1 1 2 2 1 1-1c14-13 19-31 13-48-6-15-23-27-39-28-8-1-16 0-22 2m-98 1454c9 3 18 5 26 12l-8-1a559 559 0 00-184-42c-4 0-9-2-11 3-9-4-17-5-26-5-31 0-61 1-91 3h-15c1-3 2-4 5-4l84-4c32-1 65 2 97 6 21 2 42 6 62 11 21 6 41 13 61 21"/><path d="M1451 2086h2l27-2 57-2c31-1 63 2 94 5l3 1a409 409 0 01117 30l6 2 3 1c5 2 10 3 14 6a563 563 0 00-183-42h-2c-3 0-7-1-10 2-9-4-18-4-25-4-30 0-61 1-91 3h-12m-1-4c-2 1-3 2-4 5l-1 2 2 1h16l91-3c10 0 18 1 25 5h1l1-1c2-3 4-2 7-2h3a556 556 0 01189 43h3l7 1-6-4c-7-7-15-9-22-12l-4-1-6-2a608 608 0 00-118-31h-3c-31-3-63-6-94-5l-57 2-27 2h-3m-362 202c3 4 5 9 10 10 7 2 12 7 17 11a782 782 0 00157 59c2 0 5 1 5 4-7 1-14 0-21-1l-46-13c-42-14-82-29-118-55-4-3-8-7-11-12l-13-18 3-1c8 3 12 10 17 16"/><path d="M1274 2366c-7 1-12 0-17-1l-18-5-29-8c-39-13-81-28-117-54-4-4-8-8-10-12l-8-12-2-3c5 3 9 8 12 13l2 3c3 4 6 8 10 9l14 8 3 2c9 7 20 13 32 18a782 782 0 00128 42m-210-99l2 3 5 7 8 11c3 5 7 9 12 13a409 409 0 00147 63l18 5c7 2 15 2 21 2h2v-2c0-4-2-7-6-8-45-9-86-25-125-41-12-4-22-10-32-17l-2-2-15-9c-4-1-6-4-8-7l-2-3c-5-6-9-13-18-16h-1l-2 1zm805-1879c-6 4-9-1-12-4-35-38-60-82-83-127l1-4c8 7 88 124 94 135"/><path d="M1866 387c-2 1-4-1-6-3l-1-2c-34-36-59-80-80-121 18 24 77 110 87 126m-92-138l-1 4v1l-1 3a572 572 0 0085 130c2 3 6 7 13 3l1-1v-2c-7-13-87-128-94-135zm-462 2048c4-20 87-140 110-160-4 16-98 152-110 160"/><path d="M1318 2288c16-31 70-110 96-140-18 32-74 113-96 140m108-157l-5 5a770 770 0 00-111 161l-1 5 4-3c13-9 107-146 111-161zm897 607l-55-80c-18-26-34-53-51-79-4-7-10-12-10-21 11 10 17 23 25 34l62 91 32 49c2 3 5 6 3 11-4 0-5-3-6-5"/><path d="M2328 2740c-2 0-2-1-3-2l-1-1-14-20-41-60a2790 2790 0 01-45-74l7 11 61 90 28 43 4 6 1 1 3 6m-123-187v5c0 7 4 12 7 17l3 5 51 79 41 60 14 21c1 2 3 5 8 5h2v-2c2-4-1-8-3-11a35 35 0 010-1l-4-6-28-44-62-90-7-10c-5-9-11-18-18-25zM2207 2558z"/><path d="M2210 2552l-6 6 5 4zM1604 315h-5l-10-8c-30-31-61-62-90-95l-18-19c-3-3-7-6-7-13l25 22 86 88c7 8 16 15 19 25"/><path d="M1599 313l-2-2-6-6-15-15c-25-25-51-52-75-79l-12-12-7-7-1-1-3-5 3 3 17 15 5 5 80 83 5 4c5 5 10 11 13 17zm-127-138v5c0 7 3 10 6 14h1l7 8 12 12c24 27 50 54 75 79l15 15 6 6 3 3h10l-1-2c-3-9-9-16-15-22l-5-4-80-83-5-5-17-15-9-8zm276 1686c44-16 90-28 136-41 19-5 39-12 60-14l-1 3-103 31c-35 9-69 23-107 29 5-7 10-6 15-8"/><path d="M1748 1863c45-16 90-28 135-41h1l12-3c13-4 26-8 40-10l-97 29-34 10c-21 7-43 13-65 18l5-2 3-1m29-14l-30 10-3 1c-4 1-9 2-12 8l-3 4 5-1c25-4 49-12 72-19l34-10 104-31h1l1-7h-2c-17 1-33 6-49 11l-12 3h-1l-105 31m-216 445l12-7c14-9 27-19 31-37l5-11c2-4 4-8 10-8l7 1c-7 7-11 15-14 25-1 5-3 9-6 13-7 12-17 20-29 26-14 7-23 17-21 34 0 4 0 8-2 11-1 3-2 5-5 4s-3-3-3-5v-16c-2-14 6-22 15-30"/><path d="M1551 2343h-2l-1-3v-5-12c-1-12 6-20 14-27l8-5 4-2c13-8 28-19 32-39l3-7 2-3c2-5 4-7 8-7h3c-5 6-9 14-12 23-1 5-3 9-6 13-6 11-15 19-28 25-17 9-24 20-22 36l-1 10-2 3m64-113c-5 1-7 5-8 8l-2 3-3 8c-4 18-17 28-31 36l-3 2-9 6c-8 7-17 16-15 31v16c0 2 0 6 4 7 5 1 7-3 8-5 2-4 3-8 2-12-2-14 4-24 20-32 13-7 23-15 30-26l6-15c3-10 7-18 14-24l3-3-12-1-4 1m-246 27l69-93 35-46c3-4 6-8 12-5l-3 5c-29 41-60 80-91 119-8 11-15 22-26 30 0-4 2-7 4-10"/><path d="M1371 2258l40-55 28-38 36-46c2-3 4-5 7-5l-2 3c-28 41-60 81-90 119l-6 7c-5 6-10 13-16 18l3-3m107-147l-7 5-35 47-28 38-41 54c-2 3-5 7-4 12v3l3-2c9-6 15-15 22-23l5-6a2299 2299 0 0093-123l2-4-2-1h-8m172-140l15 31c1 3 5 7 0 8-3 2-5-3-6-6l-8-16c-8-13-14-26-19-40-2-4-2-6 0-10 7-22 21-40 34-57 4-5 9-10 20-10-16 20-28 39-41 58-6 8-7 16-3 25l8 17"/><path d="M1665 2009l-3-4-1-2-8-16c-8-14-15-27-19-39-2-4-1-6 0-10 7-21 20-38 33-56h1c2-4 6-8 13-9l-24 35-14 20c-6 8-7 17-3 27a842 842 0 0124 48v2c1 0 2 2 1 3v1zm11-139c-6 2-9 6-12 9v1c-13 17-27 35-34 57-2 4-2 7 0 12 5 13 11 26 19 40l8 16 1 1c1 3 3 8 8 6 2 0 3-1 3-3 1-2 0-5-1-7l-1-1a875 875 0 00-23-48c-4-8-3-15 3-23l14-20 26-38 3-3h-4l-10 1m-6-246l-48-8c-23-3-45-2-68-3-6 0-12 0-19-4 33-6 66-1 98 1 6 0 14 0 20 3 24 7 48 6 72-2 3-1 6-5 10-2l-1 3c-20 10-41 15-64 12"/><path d="M1670 1622l-20-4-28-4-51-3h-17l-12-1c24-3 48-1 71 1l20 1h3c6 1 11 1 16 3a113 113 0 0081-5c-22 11-42 14-63 12m-141-15l5 3c7 5 13 5 20 5h17a569 569 0 0178 7l21 4c21 3 43-1 65-12l2-3v-1l1-1-2-1c-4-4-8-1-10 0l-4 1c-24 8-47 9-68 2l-17-3h-4l-20-2c-25-2-52-4-79 0zm-152 348c5 5 10 7 16 11 12 7 26 9 39 12 6 2 12 2 18 7-10 2-19-1-27-2-20-4-40-10-54-27-5-5-11-8-17-11-20-8-41-12-62-15-9-1-18-1-26-7 28-1 56 3 82 12 12 5 23 11 31 20"/><path d="M1444 1983c-5 1-10 0-15-1l-5-1c-20-4-40-9-54-26-5-6-11-9-17-12-18-7-37-12-62-15l-6-1c-4 0-9 0-13-2 27 0 51 4 74 12 13 5 22 11 30 19 4 5 9 8 14 10l2 2c10 6 22 8 33 11l7 1 4 1 8 2m-186-62l5 4c6 5 14 6 22 7h5c25 3 44 8 61 15 6 3 12 6 16 11 15 17 36 23 56 27l5 1c7 1 14 3 22 1l4-1-3-3c-5-4-10-5-15-6l-3-1-7-1c-11-3-22-5-32-11l-2-1-13-10c-8-8-18-14-32-19-26-10-53-14-83-13zm102-174zM1360 1744l-3 4 3 1 8 2z"/><path d="M1327 1805c40-18 73-47 110-74 0 8-5 10-8 12l-24 20c-23 18-46 35-73 46-4 2-9 6-12 2-3-3-2-8-1-13l2-5c9-15 19-29 31-42 2-2 4-5 8-4l-23 34c-4 7-10 13-11 21-2 1-2 3 1 3"/><path d="M1324 1810h-2c-3-2-2-6-1-10v-2l2-3v-1c9-16 19-30 30-41l1-1-2 4-17 24-3 5c-3 5-7 10-8 16-1 1-2 2-1 4 0 2 3 2 3 2h1c32-14 58-34 87-56l20-15-4 4-2 2-23 18-2 1c-25 20-46 36-72 46l-3 2-4 1m33-65l-6 4-1 1c-11 12-21 26-30 42l-1 1-2 4v2c-1 5-2 10 2 14 3 3 8 1 11-1l3-1c26-10 47-27 73-46l2-2 23-18 1-1c3-2 7-5 7-13v-4l-3 2-25 19c-27 21-53 40-83 54 1-6 4-10 7-15l4-5 16-24 7-10 2-2-3-1h-4m682 894l1-1 3-1c-3 72-14 142-31 211l27-209"/><path d="M2020 2807l5-44 15-119c-2 53-9 107-20 163m19-171l-2 2-16 124-11 86 4 1c18-73 28-142 31-212v-2l-5 1h-1m42-10c5 1 4 3 5 5l21 70c9 33 20 64 27 97 1 4 2 8-2 15-19-64-35-125-51-187"/><path d="M2133 2807c-15-50-30-102-45-163l3 11 14 47 9 32c7 21 13 43 18 65v1l1 7m-55-183l1 3c18 71 34 130 51 186l2 5 2-4c4-7 3-12 2-15v-1c-5-22-11-44-18-65l-9-32-14-47-7-24c-1-2-1-5-7-6zM1599 235c19 24 38 49 54 75 1 3 4 5 0 8-8-2-10-11-15-16-26-34-50-70-73-106l3-1 31 40"/><path d="M1653 316c-5-2-7-6-10-10l-3-5c-21-28-42-58-67-97l3 5 22 27c17 22 36 48 53 75l1 1 1 4m-84-124l-7 4 1 2c28 43 51 75 74 105l3 5c3 5 6 10 13 12h2c4-4 2-8 0-10v-1c-17-27-37-53-54-76l-21-27-10-12zm-345 1592h-2l3-6c7-12 5-17-6-25-7-4-14-4-21-2-6 1-9 8-8 16 9-7 16-3 23 4l-1 1c-4-2-7-1-10-1s-5 0-5 4c-1 3 1 5 3 6 3 1 7-1 10 1-11 8-23 6-28-4-3-10-3-19 2-29 2-3 6-6 9-6 9-1 17-2 25 2 19 8 21 25 6 39"/><path d="M1202 1784h-10c-3-1-6-3-8-7-3-9-3-18 2-27 2-2 5-5 8-5 8-1 16-2 23 2 9 4 14 9 15 16 1 4-1 9-4 13 6-11 4-16-8-24-8-6-15-5-23-3-7 2-10 8-9 18v4l3-3c6-4 11-3 17 1h-6l-6 1-2 5c0 3 2 6 6 8h4l-2 1m-11-43c-4 2-7 4-9 7-5 10-6 20-1 30 2 5 5 9 10 10 6 2 14 1 20-4l2-1-2-2c-2-2-5-2-7-2h-3c-2-1-2-2-2-4v-2h5l6 1 2 1 5-4-2-2c-6-5-14-10-23-6 0-4 1-8 6-10 8-2 14-2 19 2 11 7 12 11 6 22l-2 4-3 5h4a7 7 0 012 0h2c8-8 11-16 10-24s-7-15-17-19c-8-4-17-3-25-2h-1a13 13 0 00-2 0m-7-38h-1l-22 1c-18-7-25-26-14-38 10-12 25-13 37-9s18 15 18 29h-2l-3-7c-6-17-26-22-39-11-10 8-8 22 4 27 7 3 14 4 20 1 7-2 4 2 4 5l-2 2"/><path d="M1161 1702c-9-4-15-10-17-18-1-6 0-12 5-17 8-10 22-13 35-8 10 3 14 11 15 19a27 27 0 00-42-12c-6 5-9 11-8 17s6 12 12 14 14 5 22 1a14 14 0 011 0v2l-1 1-22 1m0-47a34 34 0 00-15 9c-6 6-8 13-6 21 2 9 10 17 20 21h22l1 1 5-6v-1-1c1-2 1-4-1-5h-5c-6 3-12 2-19-1-5-2-9-6-9-10-1-5 1-10 5-14 6-4 13-6 21-4 7 2 13 7 16 14l2 6 1 2 5 2v-3c0-16-6-27-19-31-8-3-17-3-24 0m597 228c3-4 8-4 12-5l63-15c28-5 55-8 83-8 4 0 9-1 12 3 4 2 3 3 0 5-1 3-4 4-7 6-12 6-25 8-39 11-27 7-56 10-82 22-1 0-2 0-3-2 11-8 30-15 45-17 28-4 55-10 80-20h6v-5l-6 1c-23 0-46 3-69 7-28 5-55 11-82 18-4 1-8 2-13-1"/><path d="M1809 1896c10-5 23-9 34-11 26-4 53-9 80-20h1l-2 1-2 1c-9 5-20 7-31 10l-7 1-27 6c-15 3-31 6-46 12m-47-14l6-2h2l64-15a401 401 0 01-63 17h-9m1-5c-2 1-5 2-6 5l-1 2 1 1c5 3 10 2 15 1a1017 1017 0 01149-25c-26 11-53 16-79 20-16 2-35 10-46 17l-1 1v2l2 3h4c18-8 37-12 55-16l27-6 7-1c11-3 22-5 32-11h1c2-1 5-2 6-5h1v-1c1 0 3-2 3-4s-2-3-3-3v-2l-1 1c-3-3-7-3-10-3h-3c-26 0-53 2-83 8a1330 1330 0 00-70 16m358 766l40 90 17 45c1 4 1 6-2 11-19-53-43-103-64-156 6 2 7 6 9 10"/><path d="M2176 2783c-11-30-24-60-36-89l-20-48 5 12 34 76 11 30 6 15v4m-68-154l2 5 26 62 38 94 2 3 2-3c4-5 3-9 2-12l-6-15-11-31-34-76-7-15c-1-3-3-7-9-10zm127-79c6 1 9 6 12 9 28 27 54 55 80 83 4 5 7 10 8 17-35-35-68-72-102-108l2-1"/><path d="M2331 2652l-59-62-33-36 5 5 2 2a1882 1882 0 0185 91m-102-103l3 3 37 40 64 68 4 4v-5c-1-8-5-14-9-18a1877 1877 0 00-81-85c-3-3-6-7-12-8a13 13 0 01-2 1zm-472 59c-9 4-9 4-18 3 40-20 78-42 118-61-3 6-8 8-13 10-28 18-57 33-87 48"/><path d="M1747 2609l34-18 58-30c-27 17-56 31-83 45l-9 3m114-63l-5 3c-26 12-52 25-77 39l-41 21-6 3 8 1c8 1 9 1 18-4 28-14 58-29 88-47l3-1c3-2 8-5 10-10zm-680-309zM1183 2231l-7 8h8l-1-3z"/><path d="M1266 2312l-16-11-54-45c-6-6-14-10-15-19l6 2 55 44 36 29c-6 3-9 2-12 0"/><path d="M1273 2312c-2 0-4 0-6-2l-7-5c-3-2-6-3-8-6l-8-6-46-39-4-3c-4-4-8-7-10-11l1 1 19 14 37 30 24 20 8 7m-94-77v2c1 8 7 13 12 17l4 3 46 39 8 7 9 6 7 5c4 3 8 3 13 0l3-1-2-2-11-9-24-21-37-29-19-15-7-2zm781-996c-8-1-13-4-17-9l-63-65c-4-3-7-7-6-12 30 24 80 73 86 86"/><path d="M1955 1236l-11-8-56-58-7-6-4-6c27 23 67 62 78 78m-83-87v4c-1 6 3 10 6 13l7 7 56 58c6 6 11 9 18 10h4l-1-3c-7-13-58-64-87-86zM1874 1153z"/><path d="M1877 1147l-6 6 4 4zm-178 308c2 2 4 5 1 8-10-3-14-13-20-20l-51-68 3-2c24 25 45 54 67 82"/><path d="M1699 1461c-6-3-9-8-13-13l-4-6-37-49-11-14c18 19 34 39 49 59l14 18c2 2 3 3 2 5m-67-91l-6 5 1 2 15 19 37 48 4 6c4 6 8 13 16 15l1 1 1-1c4-6 1-9-1-12l-13-17c-17-22-34-44-54-64zm-242 332c4 4 8 8 5 15-9-5-14-13-20-20l-43-50-4-8v-3c22 21 43 42 62 66"/><path d="M1394 1713c-6-4-11-9-16-15l-2-2-26-32-16-19-3-4c20 19 40 40 58 62l1 1c2 3 4 6 4 9m-68-82v8c1 4 3 7 5 9l15 19 27 32 2 2c5 6 11 13 19 17l2 2 1-3c3-7-1-12-4-16l-1-1c-20-24-41-46-62-66zM1414 1687c3 3 6 6 5 12-14-11-28-21-38-35l-24-26-9-9c-3-3-5-6-4-10 24 21 47 44 70 68"/><path d="M1416 1695l-6-5c-10-9-20-17-28-27l-14-16-10-10a185 185 0 00-11-13 1110 1110 0 0169 71m-74-80v4c-1 4 1 8 4 11l9 9 10 11 14 15c8 11 18 19 29 28l9 8 3 2 1-3c1-8-3-12-6-14-26-28-48-50-70-69zM1344 1618v1z"/><path d="M1347 1613l-6 6 4 3 1-3zm233 477h-1 1M1579 2087l-3 4 5 2 1-4z"/><path d="M1614 2137c2 12-4 26-13 31l1-7c7-25-3-45-19-64-2-2-4-4-3-7 21 9 31 26 34 47"/><path d="M1604 2163a8 8 0 010-1c6-23 0-44-19-66l-1-1-1-1c16 8 26 22 29 44 2 9-3 20-8 25m-26-76v3c-1 3 1 6 3 8l1 1c18 21 24 40 18 62l-1 4a46 46 0 010 3v4l3-2c10-6 16-21 14-33-4-25-16-41-36-49zm341-1173c-13 1-18-1-24-11-4-7-3-22 3-28 5-6 12-6 21-4l15 9c7 6 7 15 2 22 0-10-5-18-14-23-8-4-15-3-19 1-5 6-4 12-2 18 3 7 9 11 18 16"/><path d="M1912 912c-8 0-11-3-15-10s-3-20 2-25 11-6 19-4c5 1 10 4 14 8 5 4 6 9 5 14-2-8-7-14-15-18s-16-3-21 2c-5 6-4 14-2 20 3 6 7 10 13 13m-8-43c-3 1-6 2-8 5-6 7-8 22-3 30 6 11 12 13 27 12l7-1-7-3c-9-4-14-8-17-14-2-6-3-11 1-16 4-4 10-4 17-1 8 4 13 11 13 21v7l4-5c6-9 5-19-3-26-5-5-10-7-16-9s-10-2-15 0m-44 1159l-23-24c-14-11-27-24-38-37a8 8 0 002-1l6 3 32 29c10 8 19 18 28 27 3 3 7 6 4 11-5-1-8-5-11-8"/><path d="M1870 2034c-3-1-5-3-7-6l-2-2-7-8c-5-5-10-11-16-15a271 271 0 01-33-32l6 4 27 24 23 22 6 7c2 2 4 4 3 6m-76-69l3 3c14 16 26 28 38 38 6 4 11 10 16 15l7 8 2 2c3 3 5 6 10 7l2 1 1-2c3-6-1-10-3-12l-6-7a634 634 0 00-50-46l-6-4-4-3h-2l-1-1-2 1zm-54-518l-67-71-1-2 2-1c4 1 6 4 9 6l60 61c3 3 6 6 6 11-4 2-7-1-9-4"/><path d="M1742 1446l-14-15-52-55 5 4 60 61c3 3 5 5 5 8l-4-3zm-73-74l1 3 1 2 54 57 14 15c2 2 5 6 10 4l2-1v-1c0-6-4-10-7-13l-60-60c-2-3-5-6-9-7h-2zm410 1329c7 17 14 107 9 120-5-41-7-80-9-120"/><path d="M2077 2690l1 23c2 35 3 71 8 109l1 8 3-8c5-14-1-104-9-122zm-963-803c5 2 10 1 16 5-9 2-16 2-22-1-7-3-13-7-13-16-1-9 3-15 11-20 10-5 20-4 29 1 9 6 10 14 8 25-3-3-2-6-2-8-4-10-10-15-20-15-8-1-18 6-20 13-1 6 4 13 13 16"/><path d="M1122 1891c-5 0-9 0-13-2-6-3-12-6-12-14-1-8 3-14 10-18 9-5 18-4 27 1 5 3 7 7 8 12-4-9-11-14-21-15-9 0-20 7-22 15s4 15 15 19l5 1 3 1m-11-40l-6 2c-9 5-13 12-12 22 0 10 7 15 14 18s14 3 23 1h6l-5-3c-4-3-8-4-11-5l-5-1c-8-3-13-8-12-14 2-6 11-12 18-11 9 0 15 5 18 14v2c0 1 0 4 3 6l3 3v-4c2-9 2-20-9-26-8-6-17-7-25-4m419 804zM1528 2653v2l-1 5 7-6z"/><path d="M1525 2651l-37-52c-9-12-18-25-21-41 4-1 4 4 7 5 0 2 0 4 3 5l1 5 7 12 38 54c3 5 8 10 7 16-2 0-4-2-5-4"/><path d="M1527 2650l-11-14-26-38-3-3c-6-10-13-21-16-33l1 2c0 2 1 4 3 5 0 2 0 4 2 5l6 12 7 10 31 45 2 3c2 2 4 4 4 7v-1m-62-94v2c3 15 11 27 19 39l2 3 27 38 10 15c2 2 3 4 6 4l3 1v-3c1-6-3-10-6-14l-2-3-31-45-6-9-7-12v-1l-1-3v-2h-1c-1-1-2-1-1-3v-2l-2-1-2-1c-1-1-2-4-6-3zm9 7v-1h1v1z"/><path d="M1473 2560l-1 2 1 2 5 1-2-4zm102-681c-11-10-20-21-32-30-8-7-16-14-21-24h1v-1c22 19 45 36 64 59-6 3-9-1-12-4"/><path d="M1577 1878a420 420 0 01-32-31c-7-5-13-10-17-17l8 8c17 14 33 28 48 44-3 0-4-1-6-3l-1-1m-55-58l-1 3-2 1 1 2c5 10 14 17 22 24l19 18 13 13 1 1c3 2 6 6 13 3l3-1-2-3c-15-17-33-32-50-46l-14-13zm-253 347c-3-3-6-7-5-11 32 25 54 47 57 55-4 0-8-1-11-4-15-12-28-26-41-40"/><path d="M1270 2165l-3-4c25 20 44 38 50 47l-5-2c-14-12-26-24-38-37zm-8-13v4c-1 5 2 9 5 12l4 4c12 13 25 26 38 37 4 3 7 4 12 4l3 1-1-3c-4-10-25-31-58-57zM1264 2155v1z"/><path d="M1267 2149l-6 7 4 4 1-4zm682-143c-20-16-35-38-56-54 4-3 7-2 8 0 18 18 39 32 53 52-2 3-4 3-5 2"/><path d="M1950 2005l-28-28-25-25 3 2 20 18c11 10 23 20 32 32l-2 1m-55-57l-3 2-2 2 2 1c10 8 19 18 27 27 9 10 18 19 29 28 1 1 4 2 8-2l1-2-1-1c-9-13-21-23-33-34l-20-18c-2-3-5-3-8-3m-73 782c-2 2-4 4-9 4l62-65h3l-2 5c-17 19-35 38-54 56"/><path d="M1829 2720l36-36-36 36m46-53l-26 26-40 42 4 1c5 0 8-2 10-4v-1a903 903 0 0057-60v-1l2-3zm-322-852h1v-1l19 15 32 30c4 4 7 7 6 13-10-4-15-13-22-19-14-11-26-23-36-38"/><path d="M1609 1869l-12-10-7-8c-9-7-21-18-31-30l12 10 33 30c3 2 5 5 5 8m-56-59l-1 3-2 1 1 3c11 16 25 28 36 37l7 7c5 5 9 10 17 13l2 1v-3c2-7-3-11-6-14a1417 1417 0 00-33-30l-13-11-5-5zm358 221l-4-2-25-30-17-20c-3-4-5-7-5-11 18 15 33 33 48 52l4 6c1 2 1 4-1 5"/><path d="M1910 2029l-1-1-16-19-9-12a414 414 0 00-21-24c16 14 30 31 43 47v1l4 6 1 1-1 1zm-52-66v4c-1 6 2 10 5 13l18 20 9 11 15 19c2 3 5 4 7 2l3-2-1-5-4-7h-1c-14-18-29-37-48-52zM1860 1967v1-1z"/><path d="M1863 1961l-5 6v2l4 3zm-267-150h2c18 11 33 26 48 40 2 2 3 4 1 7-3 2-5 1-8-1-14-16-30-29-43-46"/><path d="M1644 1857c-1 0-2 0-3-2l-16-16-22-23c13 9 25 20 36 31l6 6 1 2-1 1-1 1m-53-48l3 3c8 11 18 21 28 30l16 16c4 5 8 3 10 1 2-1 2-3 2-4 0-2-1-4-3-5l-5-6c-13-12-27-25-43-35l-1-1-1 1h-1zm-114 759zM1475 2566v1l-1 2 2 1 3 1v-6z"/><path d="M1475 2562c1-3 0-6-1-10a459 459 0 01-1-96l1 43c3 23 4 46 5 69h-2c0-3 1-5-2-6"/><path d="M1476 2548c-2-16-4-32-4-50v1l4 48v1m-7-95v2c-2 35-1 67 3 97v1l1 9-1 2 2 1 1 2v3h6v-3l-1-20-4-48-1-26v-19h-2l-2-1zm-190-165c-14-10-28-21-40-33-6-5-14-8-17-15l2-2 30 23c10 9 21 15 29 26-2 1-3 2-4 1"/><path d="M1280 2286a342 342 0 01-46-37c-3-2-6-4-8-8l6 6 21 16 9 7c6 5 13 10 18 16m-56-51l-4 4 1 1c2 6 6 9 11 12l5 5c14 13 28 24 41 33h4l2-1 3-1-2-2c-6-8-13-14-20-19l-9-7-21-17-9-7zm81-545c14 13 26 26 38 40 1 2 2 3 0 5h-4a20 20 0 01-5-4l-19-23c-3-6-11-9-10-18"/><path d="M1341 1734l-1-1-4-3-5-6c-5-5-10-11-14-18l-4-4-5-7a380 380 0 0133 39m-38-49l-1 5c0 7 4 11 8 15l3 4 15 18 4 5 6 5c2 1 5 1 7-1s2-4-1-7c-13-17-25-29-38-41zm668 285l-1-1c-11-10-23-19-33-30-1-2-3-4-2-7 15 9 27 22 40 33 3 2 9 3 6 7s-7-1-10-2"/><path d="M1971 1968l-12-12c-7-5-14-11-20-18v-1l24 20 11 9 3 2 3 2-1 1c0 1-1 1-3-1l-5-2m-38-39v3c-1 4 1 6 3 8l20 20 12 11 2 1 3 2c3 1 7 3 9 0 2-2 2-3 2-5l-5-5-2-1-11-9c-9-8-19-17-30-23zM1935 1932z"/><path d="M1940 1924l-9 9 5 3 1-3zm-144-391c3 8 7 17 8 26 0 6 0 11-7 12 6-5 4-11 2-18l-6-18c-4-10-6-20-4-31 0-4 0-10 7-11-5 13-4 26 0 40"/><path d="M1791 1504v-1l1-6a52 52 0 00-1 7m2-13c-5 2-6 8-6 11v2c-2 10 0 21 4 32l5 15 1 3c2 6 3 11-2 16l-5 5 7-2c10-2 9-10 9-14l-6-21-2-6c-5-14-5-27 0-38l1-3h-6M1796 1493"/><path d="M1795 1489l-1 3 2 1-2-1-2 3h8zm-513 776l-3-2-28-22c-4-3-9-5-8-11 5 0 8 4 12 7l30 21c2 1 4 3 3 5-1 3-4 3-6 2"/><path d="M1282 2263l-1-1-1-1-8-6-20-15-2-2c-3-2-5-3-5-6l6 4 3 3 20 14 10 7 2 2c0 1-1 2-4 1m-41-36l-1 2c0 7 4 10 7 12l2 2 20 15 8 6 1 1 3 2c4 1 7 0 9-3 2-4-1-6-3-7l-11-8-19-14-4-2c-2-2-6-5-10-5zm301-345l-5-2-35-29c-2-2-5-4-4-8l3 1 40 30 4 4-1 3-2 1"/><path d="M1542 1880l-3-2-16-13-20-15-3-4 40 29 3 3v1l-1 1m-46-39v2c-2 5 2 8 5 10l19 15 16 13c2 2 3 3 6 3l4-2c2-1 2-4 0-6l-4-4-40-30-3-1a9 9 0 01-1 0zM1498 1843z"/><path d="M1505 1832l-11 12 5 2 1-2zm259-1509c-4 3-6 0-8-1-7-6-12-13-16-20-6-9-14-16-17-27h1v-1c15 16 27 32 40 49"/><path d="M1761 322l-4-2c-5-4-9-10-13-16l-3-3-4-7a618 618 0 0124 28m-39-53v4h-1v3c2 8 7 15 12 21l5 6 2 4 14 16h1c2 2 5 5 10 2l2-1-1-2c-12-15-25-33-40-49zm100 1761l-4-1c-10-16-27-26-36-44 2-1 4 0 5 1l34 37 2 3c1 2 0 3-1 4"/><path d="M1821 2028h-1l-17-19c-6-7-13-13-17-22a3 3 0 000 1l34 36 1 3v1m-42-44l1 2c5 10 13 18 21 26 5 5 11 11 15 18 2 2 4 3 6 2l3-3v-4l-2-4-34-36c-2-2-4-3-7-2zm-471 255c-3-1-7-2-9-4l-26-20c-3-2-6-4-5-8 16 7 27 19 42 26l1 1v4c-1 1-2 2-3 1"/><path d="M1308 2239l1-2h-2l-7-4a668 668 0 01-10-10c6 4 12 9 19 12v2zm-41-35l-1 2c-1 6 3 9 5 11a713 713 0 0034 24h6a4 4 0 002-2v-5l-2-2-18-12c-8-6-15-11-24-15zM1268 2207z"/><path d="M1272 2199l-7 9 3 1 2 1zm607-1474c2 1 5 1 6 4-10 2-16 0-20-7-3-5-3-9 1-13 6-5 14-5 24 1h-8c-5 1-10 1-11 6 0 5 4 7 8 9"/><path d="M1880 728c-6 1-11-2-13-7-3-4-2-8 1-11s7-3 13-2c-5 1-11 1-12 8-1 5 4 8 8 10l1 1 2 1m-9-24c-3 1-5 2-6 4-4 4-5 9-2 15 4 8 11 11 22 8h2v-2c-1-4-4-5-5-5l-2-1h-1c-4-2-6-4-5-7 0-3 3-3 7-4h16l-6-4c-8-5-15-6-20-4m-489 1647l-1 3c0 2-2 2-4 1-12-9-23-18-30-32 13 6 23 15 33 25l2 3"/><path d="M1379 2354h-1c-9-7-19-15-26-26a110 110 0 0128 23v2l-1 1m-37-35l3 5c7 15 20 25 31 33l4 1 3-3 1-5-3-4c-8-8-19-18-33-25zm416-909l9 12c1 1 3 4 0 5-2 2-3 0-5-2l-20-25c-4-7-12-11-11-20 10 9 17 20 27 30"/><path d="M1766 1426l-2-2-10-13-10-13-5-5-5-8a244 244 0 0122 26l9 12c2 2 1 3 1 3m-37-51v4c-1 8 3 13 7 17l5 5 10 13 10 13c0 1 2 3 4 3l4-1c1-1 3-4 0-8l-10-13-10-11-17-19zM1731 1380v-1 1"/><path d="M1733 1372l-3 5-6-1 8 8zm-405 303M1332 1667l-7 8 2 2 3 1v-3z"/><path d="M1362 1715h-3c-12-9-19-22-30-33l-1-7c19 15 32 30 34 40"/><path d="M1359 1713l-17-19-11-14h-1c15 12 25 24 29 33m-33-42v4c-1 4 0 6 2 8l11 13c5 7 11 15 18 21 1 0 3 2 6 0l1-1v-2c-2-10-15-25-35-41zm-168 338c-14-13-14-13-14-20 13 10 25 20 36 35-13 0-17-9-22-15"/><path d="M1175 2021c-5-1-9-5-12-9l-4-4-12-14c11 8 20 17 28 27m-33-36v4c0 8 1 9 14 22l4 4c4 5 9 11 20 11l4-1-2-3c-11-13-23-24-36-34zm323-144c12 4 35 25 39 35-9-2-18-10-39-35"/><path d="M1499 1872c-6-3-13-10-25-24 9 6 20 17 25 24m-40-36l4 6c22 26 31 34 41 36h3l-1-3c-4-11-28-32-40-36zm-265 134h3c14 10 27 22 40 36-11-1-26-14-43-36"/><path d="M1230 2002c-8-4-18-13-30-27 12 9 22 18 30 27m-40-33l2 3c18 23 34 35 45 36h5l-3-4c-11-11-25-24-41-36h-1zm546 11c12 9 32 34 35 44-16-13-25-28-35-44"/><path d="M1764 2015l-18-22 18 22m-36-42l9 13c9 14 18 28 33 40l5 4-2-6c-3-11-24-37-36-45zm-328 366M1400 2337h-2v8l9-11z"/><path d="M1384 2330c-7-3-14-12-19-22 15 9 27 16 35 28v3c-8 2-10-6-16-9"/><path d="M1385 2328c-4-2-9-7-14-14 11 7 20 13 27 23-3 0-5-1-8-4l-5-5m-25-25l4 6c5 11 12 20 19 23l4 4c3 3 7 7 14 5l1-1v-5c-8-11-19-18-31-26zm421-1299c-2-8 2-13 10-14-5 14-5 15 13 26-12 3-22-3-23-12"/><path d="M1798 1014c-4 0-7 0-10-2s-5-5-5-9c-1-3-1-6 1-7 1-2 2-3 4-3-4 11-2 14 10 21m-11-25l-7 4c-2 3-2 7-1 11 0 5 3 9 7 11 5 4 12 4 18 3l5-2-4-2c-17-10-17-10-12-23l1-4-3 1-4 1m-664 1014c13 6 23 14 32 25-15-2-23-14-32-25"/><path d="M1149 2024c-7-3-13-8-18-15 6 4 13 9 18 15m-32-27l6 8c8 11 16 23 32 25l6 1-4-4c-10-12-20-20-33-26zm81 20c-9-10-22-17-29-29l2-2c11 10 24 19 35 30-3 3-6 3-8 1"/><path d="M1202 2016h-2l-11-10-17-16 10 8 21 18h-1m-31-33l-5 5 1 1c5 9 12 14 19 20l11 10c1 1 5 4 10-1l2-1-2-2-23-21-12-10zm401-597v-1 1M1573 1381l-4 5 2 1 4 3-1-5z"/><path d="M1595 1413c-11-7-19-16-23-27 13 7 23 18 23 27"/><path d="M1592 1408c-7-4-12-10-15-17 7 5 12 12 15 17m-24-27l2 5c4 13 12 22 24 29l4 2-1-4c0-10-11-22-24-29zm-316 593c1 1 4 3 3 5-2 3-5 3-7 2-8-5-15-12-21-24 11 5 17 12 25 17"/><path d="M1252 1979h-3c-6-4-12-9-17-16l11 7 8 6 2 2-1 1zm-30-26l3 5c6 12 13 19 22 25h6c2 0 3-1 4-3 1-3-1-5-4-8l-8-5c-4-4-10-8-17-11zm40-729c-10-4-16-10-21-15-4-4-9-8-8-14 10 8 21 15 29 29"/><path d="M1256 1218c-6-3-10-6-14-11l-2-2-4-5h1l19 18m-24-27l-1 4c-1 6 3 10 6 13l2 2c6 6 12 12 22 16l6 2-3-5c-7-12-16-19-25-26l-4-4zM1233 1195z"/><path d="M1237 1188l-7 7 2 2 3 2v-4zm-94 57zM1146 1237l-6 8 5 4v-4z"/><path d="M1167 1277c-3 2-4 0-5-2-1-4-6-6-8-10-3-7-12-11-11-20 10 7 15 18 24 27 1 1 2 4 0 5"/><path d="M1165 1276l-1-2-5-6-3-4-5-7-5-7 10 13a136 136 0 0010 12v1h-1m-24-35v4c-1 7 3 11 7 15l5 6c0 2 2 4 3 5l4 5 4 4 4-1 2-4-2-5-8-10c-5-6-10-12-16-16zm614-960M1759 274l-7 7 2 2 3 2v-4z"/><path d="M1784 310c-4 3-8 2-9-1-3-7-9-11-14-16-3-3-6-7-6-12 10 9 20 18 29 29"/><path d="M1780 309h-2l-1-1c-2-5-6-8-10-12l-5-4-3-5 21 22m-26-32l-1 4c0 6 3 10 6 14l5 5c4 3 7 6 9 10l4 4c2 0 4 0 8-3l2-1-2-2c-8-10-17-19-28-28zm-180 2465c-2 3-4 2-5 1-10-6-17-15-24-24v-4c11 8 18 19 29 27"/><path d="M1566 2738c-6-4-11-10-17-17l8 9 9 8m-23-28v6 4c8 11 16 19 25 25 1 0 4 3 8-1l2-2-3-1-15-14-14-14zm-410-1439c7 8 15 16 20 27-11-5-18-15-20-27"/><path d="M1148 1293c-5-4-8-9-10-14l10 14m-19-29l2 7c3 14 10 24 21 29l5 3-2-5c-5-12-12-20-21-29zM1133 1271z"/><path d="M1134 1266l-4 5 5 6zm677-242c3-12 6-23-1-34-7-5-14-12-23-14-13-3-22 5-21 19 2 13 9 22 20 28l12 6c-13 1-21-2-29-9-11-12-10-26-7-40 1-5 4-8 10-10 16-3 31 4 40 18 11 13 10 24-1 36"/><path d="M1815 1015c1-6 2-12 1-17 2 6 2 11-1 17m-26 12c-7-1-13-4-18-9-10-10-10-22-7-37 0-5 4-8 8-9 13-3 26 2 35 12h-1c-5-4-11-8-18-10-8-2-14 0-18 3-5 4-7 11-6 18 2 14 9 24 21 30l4 2m-19-58c-6 2-9 6-11 11-2 14-3 29 9 41 8 8 17 11 30 10l7-1-11-5-7-4c-11-5-17-14-18-26-1-6 0-11 3-14 4-3 9-4 15-3 6 2 11 5 17 10l5 3c5 10 3 19 1 30l-2 10 5-6c12-12 12-25 1-38a39 39 0 00-44-18M1811 1024z"/><path d="M1815 1017l-6 7 1 2 2 3 2-5zm153 908M1969 1921l-5 5 7 3-1-5z"/><path d="M1991 1941c-9 1-19-6-23-16 9 3 17 8 23 16"/><path d="M1987 1939c-6-1-11-5-14-10 5 2 10 6 14 10m-22-17l1 4c4 11 15 18 25 17h4l-2-3c-6-8-14-13-24-17zm-554-277c-12-2-18-9-21-18 9 3 16 8 21 18"/><path d="M1407 1642c-6-2-10-6-13-11 5 2 9 5 13 11m-20-19l1 5c4 11 11 17 23 19l4 1-2-4c-6-12-15-16-22-19zM1390 1627"/><path d="M1391 1623l-5 5 3 1 4 1-1-4zm225-227c8 5 14 13 17 22-9-4-13-14-17-22"/><path d="M1628 1412l-5-8 5 8m-17-23l5 10c3 8 7 17 17 21l4 1-2-4c-4-10-10-18-17-23zm-428-419c-9-6-12-13-13-21 3 7 12 10 13 21m-17-37l2 17c1 10 6 16 14 21l4 3-1-5c-1-7-5-11-8-14l-5-6zm307 67h1-1M1470 998l3 6 2-2 4-4z"/><path d="M1456 987h2c7 2 11 7 15 13-9 0-12-7-17-13"/><path d="M1468 997l-7-6c3 1 5 4 7 6m-16-12l4 5c4 6 8 12 17 12h4l-2-3c-4-5-8-11-16-14h-3zm-315 142l2-2c5 6 10 12 12 21-8-5-10-12-14-19"/><path d="M1147 1140l-4-7 4 7m-8-18l-4 5 1 1 1 4c3 5 6 11 13 16l4 3-1-5c-1-9-6-14-10-19l-2-3zm47-66c3 4 7 6 6 13l-8-11 2-2"/><path d="M1186 1053l-5 5 12 16 1-4c1-7-2-11-5-14l-1-1zm-35 154zM1153 1202l-5 5 5 3v-3z"/><path d="M1161 1222c-8-4-10-9-10-15 5 3 7 8 10 15"/><path d="M1149 1203v4c0 8 3 13 12 17l5 3-4-8c-3-6-5-11-10-14zm89-47c-7-2-10-6-9-12 4 2 8 5 9 12"/><path d="M1227 1140v4c-1 7 3 12 11 14h3l-1-3c-2-7-6-10-10-13zM1229 1144v-1 1"/><path d="M1230 1139l-5 5 2 1 3 2 1-4zm118-122zM1350 1011l-6 7 6 2v-3z"/><path d="M1348 1017c6 1 9 5 12 10-7 0-11-3-12-10"/><path d="M1356 1025c-3-1-4-2-5-5l5 5m-10-11v3c0 6 3 12 14 12h4l-2-3c-4-6-8-10-14-11zM1361 1027h-1 1"/><path d="M1357 1025l2 3 1 4 2-3 3-4zm-61 1118c6 0 9 4 11 8l4 1 46 36c1 1 3 2 2 4-4 1-8-2-11-4l-37-30c-2-1-5-4-4-7-5 0-9-1-11-8"/><path d="M1357 2190c-3 0-5-2-7-3l-33-26-5-4-3-4h1l46 36a41 41 0 011 1m-63-49v3c2 7 7 9 11 9 0 3 3 6 5 7l4 4 33 26c3 2 7 5 12 4h1l1-1c2-4-1-6-2-7l-47-36-2-1h-1c-3-4-6-8-13-8zm54-1124M1344 1015l3 5 2-1 16-1-18-4v1z"/><path d="M1337 1009c5 0 8 4 11 8-5 0-10-1-11-8"/><path d="M1334 1007l1 3c2 8 8 9 13 9h3l-2-3c-2-4-5-9-12-9zm46 613c5 0 8 3 10 7-5 0-9-1-10-7"/><path d="M1377 1617l1 3c1 8 7 9 12 9h3l-1-3c-3-5-7-8-12-8zM1390 1627"/><path d="M1386 1624l3 6 2-2 3-3h-4v2-2zm-217 605h2c4 1 8 3 10 8-6 0-10-3-12-8"/><path d="M1165 2226l2 4c3 6 8 9 14 9l3-1-1-2c-3-5-7-8-12-9h-1-1zM1181 2237"/><path d="M1177 2235l4 5 1-1 12-2-14-3v1zm559-1099h2c4 1 7 3 10 7-7 1-10-2-12-7m-3-2l1 3c3 5 6 9 14 8h3l-2-3c-2-4-5-7-10-8h-3zm-189 1580h1v1l-1-1"/><path d="M1542 2712l1 4 4 3v-6l-2-1z"/><path d="M1537 2704c4 3 7 6 7 10-6 0-7-5-7-10"/><path d="M1535 2700v4l1 8c2 3 5 4 8 4h3v-2c-1-6-5-9-9-12zm-37-857h-1 1M1494 1841l2 3 1 3 6-6z"/><path d="M1488 1838h2c3 0 6 2 7 5-4 0-7 0-9-5"/><path d="M1485 1835l1 4c2 6 9 6 12 6h3l-2-3c-2-5-7-6-9-6h-1-1zm-153-831h1-1M1329 1001l2 4 1 2 5-4-4-1-1 2v-1l1-1z"/><path d="M1324 999c5-1 7 2 8 5-3-1-7 1-8-5"/><path d="M1322 998v2c1 6 6 6 8 6h6l-2-3c-1-3-4-7-10-6zm885 1560M2205 2556v6l7-7h-5z"/><path d="M2200 2550a13 13 0 002 0c3 2 5 4 5 8-5 0-5-5-7-8"/><path d="M2196 2549l3 3 1 2c1 2 2 6 7 6l2-1v-2c0-4-2-7-6-9h-2-1zm-963-324l2-1c3 1 6 2 7 6-4 0-8-1-9-5"/><path d="M1230 2222l1 3c2 7 9 7 11 7l3-1-1-2c-2-5-6-6-9-7h-1a2 2 0 01-1 1z"/><path d="M1242 2230l1-1v1h-1"/><path d="M1240 2228v2l1 1v1h4v-5zm718-308h2c4 0 7 1 8 5-4 0-8 0-10-5"/><path d="M1955 1917l1 4c3 6 9 6 12 6h3l-1-3c-2-5-8-6-9-6h-2zM1968 1925"/><path d="M1965 1923l2 7 2-4 4-3h-5v2-2zm-599-183l-1 2c-1 2-2 4-5 5 0-4 1-7 6-7m-3-2c-5 1-5 6-5 9v3l3-1c3-1 4-3 6-5l1-2v-5h-3l-2 1m-3 9"/><path d="M1362 1744l-6 2 3 2 3 3 1-4h-2 2v-1zm-101 458c3 0 6 2 7 5-3 0-7 0-7-5"/><path d="M1259 2199v3c0 7 6 7 9 7h3l-1-3c-2-4-5-6-9-6zM1261 2202z"/><path d="M1262 2198l-5 5 6 1v-3zm3 7l3 6 2-3 3-3h-5zm-120-1006h1v-1c3 2 5 5 5 9-5 0-4-5-6-8"/><path d="M1142 1197l1 3 1 2c1 3 2 7 7 7h2v-2c0-5-3-8-6-10v-1h-1l-2 1zM1151 1207"/><path d="M1149 1205v7l7-8-5 1zm788 1406h1-1M1935 2605v9l3-1 3-1z"/><path d="M1935 2615l-1-1c0-2 2-3 3-3 0 2 0 3-2 4"/><path d="M1936 2609l-4 4v3l4 1c2-1 3-3 3-6l1-3-3 1h-1M1745 275l10 9 4-4zM1753 280l2 1-2-1"/><path d="M1753 278a4 4 0 00-1 0l-6 2 20 7-10-8-1-1h-2m-407 2045h0M1344 2320v4h1l1 1 4 2-2-6h-1z"/><path d="M1344 2321l2 2-3-1 1-1"/><path d="M1343 2319l-1 2-2 3 6 1h4l-2-3c-1-2-2-3-4-3h-1m514-354h1-1M1855 1962v4h1v1h1l3 1v-5z"/><path d="M1855 1963l2 2-3-1 1-1"/><path d="M1854 1961l-1 2-2 3h3l6 1-1-3c-1-3-3-3-4-3h-1m-529-289l3 3c-2 0-4 0-5-3h1z"/><path d="M1321 1670v3c1 2 2 4 7 4l4-1-6-6h-3zM1328 1675z"/><path d="M1324 1673l4 5 2-2 3-4zm407 302h2-2m1-3l-4 3 2 2 2 1 3-2 1-2zm-391-356M1338 1613l2 7 4-3-1-3z"/><path d="M1339 1614l2 2-3-1 1-1"/><path d="M1338 1612l-2 2-1 3 3 1h6l-1-3c-1-3-3-3-4-3a2 2 0 00-1 0m-53 524h2l1 1-3-1"/><path d="M1286 2118l-2 15h-1v3l2 3h6l-3-6h-1zm-143-873M1139 1243l4 6 4-5-4-1z"/><path d="M1140 1243l3 2c-1 0-3 1-3-2"/><path d="M1139 1241l-1 2 1 3 3 1h5l-2-3c-1-1-3-3-5-3zm433 144M1569 1383l1 3 1 4 3-4-1-3h-2z"/><path d="M1567 1383h2c2 0 2 1 3 2-3 1-4 0-5-2"/><path d="M1564 1381l1 2c0 2 2 5 7 4h2v-2c-1-1-1-3-4-4l-1-1v1h-2zm167-2v1l-1-1h1"/><path d="M1726 1377l4 4 1 1 4-5h-4z"/><path d="M1726 1377h2l2 2c-1 1-3 0-4-2"/><path d="M1727 1375l-1 2h-2v1c2 4 5 4 7 3h4l-6-6zm-466 778M1258 2150l2 5h1l3 1-1-3v-2z"/><path d="M1259 2151l2 2-3-1 1-1"/><path d="M1258 2149l-2 2-1 3h3l6 1-1-3c-1-3-3-3-4-3h-1m-77-1096l-1-2h1v2"/><path d="M1179 1049l-1 2c-1 1 0 2 1 3l3 1 2-3-3-3h-2m624-18v-1h1z"/><path d="M1801 1028l1 6 9-4zm-7-41l2-1 1 1-2 1-1-1"/><path d="M1795 985h-1l-3 1 2 2 2 2 2-1 3-1-1-2-3-2-1 1m143 1626c1-2 3-2 4-2l-4 2m2-4l-4 2-4 5 6-1 6-3 5-5-7 2h-2M1938 2611h-1 1"/><path d="M1933 2609l3 3 1 4 2-4 4-4zM1943 2609h-1 1z"/><path d="M1943 2605l-2 2-5 6 10-3zm-60-1855v-1h3l-3 1"/><path d="M1880 747l1 3 2 2c2 1 4 0 5-3l1-3zM1886 749v-1 1"/><path d="M1885 745l-1 3-1 3 8-1z"/><path d="M1889 747v-1 1l-3 1 2-2c1-2 3-3 5-3l1 1c-1 2-3 2-5 3"/><path d="M1890 741l-3 3c-3 1-3 3-3 5v2l2-1 4-1c3-1 5-3 6-5v-1l-1-1a15 15 0 00-1-1h-4m-32 1224l2 2c-2 0-2-1-2-2"/><path d="M1855 1962v3c1 3 2 4 5 4h2v-2c-1-2-2-4-4-4zM1860 1967"/><path d="M1857 1965l1 3v1l2-1v1-1l1 1 4-4h-5zm135 169v-1 1M1986 2128l10 17-2-12-1-1v-1zM1991 2133h1-1"/><path d="M1992 2130l-2 1-2 2 2 2 1-2-1 2 7 4zm-62-203l2 3h-3l1-3"/><path d="M1928 1922l-1 10h9zM1932 1930l2 2-2-2"/><path d="M1930 1927v3c0 2 2 4 4 4h3l-1-2c0-2-1-4-3-4zM1932 1930z"/><path d="M1928 1928l1 2-1 1 3 1 1 1 1-1 2 1-1-4v-2zM1935 1932h-1 1"/><path d="M1931 1930l2 3v4l6-7zm-638 210v-1zm2-4l-8 4 9 2zm-31 19v0M1261 2153l1 3v4l7-7z"/><path d="M1261 2153a3 3 0 013 2c-2 0-3 0-3-2"/><path d="M1259 2150v3c0 3 2 4 4 4l3 1v-3l-4-4zm102 119l4-2-3 4-1-2m2-4l-3 3-3 2 3 1 2 5 7-11h-6M1365 2267"/><path d="M1367 2263l-4 3-2 3h7l-1-2zm504-1112c2 0 2 1 3 2-2 0-3-1-3-2"/><path d="M1869 1148v3c0 2 2 4 5 4h2v-3c-1-2-2-3-4-3zM1871 1150v1z"/><path d="M1874 1144l-7 8 7 1v-2zm0 9"/><path d="M1872 1151v3l1 4 2-3 4-4zm-643-8v1l-1-1h1"/><path d="M1221 1139l7 8 5-5-4-1zM1226 1141l2 2-2-2"/><path d="M1226 1138l-2 2v2c1 2 2 3 4 3l7 2zm643 9l2 3-2 1v-4"/><path d="M1867 1141l-1 12 9-1zM1871 1150v1-1"/><path d="M1867 1149l3 3 1 2 5-6h-5zm-58-124h2s0 2-2 0"/><path d="M1806 1024l2 2c0 1 1 2 3 2l2-2 1-4zM1811 1024v0"/><path d="M1812 1021l-3 2v1l-2 4 8-2zm-480-17h0M1336 998l-7 6 3 2 3 1v-3z"/><path d="M1334 1005l-1-1h1v1"/><path d="M1331 1001v3 2l3 1h2v-3l-1-1-1-1zm-201 901l-2 1c0-1 0-3 2-1m-2-3l-2 3c-1 1 0 2 1 3l1 1 5-4-2-2-3-1m348-896M1473 1001l1 2v5l7-7zm1-1h-1z"/><path d="M1476 995l-7 7h4l2 1z"/><path d="M1474 1000c1 1 2 1 2 3-2 0-3-1-2-3"/><path d="M1472 998l-1 2 2 4 3 1h2v-3c0-2-2-3-4-4zm471 1611v-1zM1942 2606l-2 2 3 4 2-3-2-1 1-1-1 1zm-711-1414v1-1zM1232 1187l-4 5 6 7-1-7zM1231 1193l2 2-2-2"/><path d="M1227 1186l2 7c0 2 1 3 3 4l7 1zM1233 1195"/><path d="M1226 1191l7 7 2-2 3-3-5-1zm304 1465v-1 1M1527 2652l1 4 2 2 3-1c0-2-1-3-2-3zM1530 2655"/><path d="M1531 2652l-5 4 7 3zm6 52M1531 2697l5 9 3 2v-5l-1-1z"/><path d="M1534 2700l3 4-4-3 1-1"/><path d="M1532 2692v7l-5 1 16 10zm-301-1500h-1 1M1226 1189l3 5 2 1 4-4-4-1zM1230 1191v1-1"/><path d="M1229 1189l-1 1-1 2c1 1 1 2 3 2l5 1-3-4c-1-2-2-2-3-2m657-441v1zM1881 747l4 3 6 6-3-8v-2h-2v2l-1-2zm18-8l-2 2-3 3-1-1 2-3 3-3 2-2 2 1-3 3"/><path d="M1900 732l-4 4-6 7 2 1v1l1 1h1l4-3 3-3 4-4-2-1-1-2zm-559 884zM1339 1601v14l-2 2 4 1 3 1-1-4z"/><path d="M1341 1616c2 0 2 1 3 2-2 0-3 0-3-2"/><path d="M1339 1613v3c0 3 2 4 5 5h2v-3l-4-4zM1344 1618v0s0 1 0 0"/><path d="M1341 1616l1 3v4l7-7zm1 814c-97 0-192 8-282 46 42-35 204-62 282-46"/><path d="M1109 2450c-22 7-40 16-51 24l-10 9 12-5c99-41 203-46 282-46l1-4c-59-12-166 0-234 22m274 234c-52-47-105-89-155-134l2-3 6 4 80 67c21 18 43 35 62 55 2 2 5 4 5 11"/><path d="M1379 2677l-71-61-74-64 19 16 62 51 4 4c20 16 40 33 57 52h1l2 2m-149-132l-5 5 2 1 78 68 77 66 4 4-1-5c0-7-3-9-5-12h-1c-18-19-38-36-57-52l-5-4-61-51-19-16-4-2zm-5 2c-4-2-8-4-9-9 7 3 7 3 9 9"/><path d="M1212 2534l2 4c2 6 6 9 10 11l4 1-1-4c-2-7-3-7-10-10zm-19-15v-1 1M1195 2512l-5 8 5 1v-3zm3 12zM1196 2521v3l1 4 5-6z"/><path d="M1198 2524c-3-1-5-2-5-5 3 0 5 1 5 5"/><path d="M1191 2516v3c0 2 1 6 7 7h2v-2c0-3-1-7-6-7z"/><path d="M1193 2518c-2 1-4 0-5-2 2 0 4 0 5 2"/><path d="M1185 2514l1 3c2 3 4 4 7 3h3l-1-3c-1-1-3-4-7-3zM1193 2519v-1z"/><path d="M1190 2517l3 5 2-2 3-5-5 1zm-2-1"/><path d="M1189 2512l-7 7 9-1-1-3zm17 17c3 1 7 2 6 7-4-3-4-3-6-7-1 0-3 0-1-2l1 2m-1-5l-2 2s-2 1-1 3l2 2 7 7 3 1v-3c2-6-3-8-6-9h-1zm-89-24c-1 0-2-1-2-3-1 0-3 0-1-2l1 2c2 0 2 1 3 3l2 2-1 1-2-3m-3-8l-2 2-1 3 2 2 3 3 3 4 2-2 1-1h1l-1-2-3-3-3-3zm-8-4l-1-1h1v1"/><path d="M1102 2485v2c0 2 1 2 2 3h3v-2l-1-3h-1zM1104 2487"/><path d="M1106 2482l-6 6 4 1h3l-1-3zM1104 2487z"/><path d="M1098 2482l5 8 2-2 3-2z"/><path d="M1103 2486v-1l1 2-1-1"/><path d="M1100 2477l1 9 1 2h1l6 3-4-6v1-1zm-1 2v1-1h-1z"/><path d="M1082 2465l15 16h1v-1h1l1 1 1-1 1-1-1-1-1-2h-1zm118 60l-2-1c1 0 3-1 2 1"/><path d="M1194 2521l6 8 1-2c1-1 2-2 1-4l-3-1zM1198 2524"/><path d="M1198 2521l-4 4 8 1-2-4zm-10-5l-1-1v-1l1 2"/><path d="M1185 2513v1l1 3 1 1 3 1v-3l-1-3-2-1zM1188 2516z"/><path d="M1186 2513v3l-1 5 7-6-3-1zm405 383c35 15 71 28 111 36-22 10-86-11-111-36"/><path d="M1692 2932c-22 3-63-11-89-29 31 13 60 23 89 29m-111-43l8 8c26 25 87 46 111 38l2-1 6-3-6-1c-36-8-72-19-111-36zm166 45l75 16c-15 7-62-3-75-16"/><path d="M1812 2950c-15 1-40-4-55-12l21 5 34 7m-72-19l5 5c14 13 63 23 78 16l6-3-6-1-44-9-32-7zm22 24h1-1zM1762 2952l-1 2-3 2 14 4z"/><path d="M1824 2976c-22-3-43-8-61-21 24 5 49 13 75 16-4 5-9 5-14 5"/><path d="M1824 2974c-16-2-34-6-50-14l12 3 47 10-9 1m-71-23l8 6c20 14 42 18 63 21 4 1 11 1 16-5l2-3-4-1c-17-2-34-6-51-10l-24-6zm-91-38c-27-6-51-20-74-36 26 11 50 22 74 36"/><path d="M1645 2906l-34-17 34 17m-75-39l17 12c21 14 46 29 74 36l13 3-11-7c-24-14-48-25-74-36zm-184-321c15 17 28 41 30 50-9-5-24-30-30-50"/><path d="M1412 2590c-7-7-15-20-20-33 9 12 16 24 20 33m-30-53l2 9c6 21 21 46 31 52l4 2-1-4c-2-10-16-35-30-51zm568 430l52 8c-12 5-38 1-52-8"/><path d="M1989 2975c-8 0-18-1-27-4l13 2 14 2m-47-11l7 5c15 10 41 14 54 7l7-3-8-1c-9 0-17-2-26-3l-25-4zm-485-245c9 10 19 18 24 31-12-7-23-21-24-31"/><path d="M1476 2744c-6-5-10-11-13-16l13 16m-21-32v7c1 11 13 26 25 33l5 3-2-6c-4-9-10-17-17-23l-7-9zm10-4zM1463 2705l-1 10 6-7z"/><path d="M1465 2706v2c-11-11-18-25-24-40 9 12 18 24 24 38"/><path d="M1434 2654l5 15c6 14 13 29 25 41l3 3v-4-4c-7-15-16-28-24-38zm-20-152c4 10 6 20 5 36-8-11-4-23-5-36"/><path d="M1417 2530l-1-15 1 15m-5-39v22c-1 8-1 18 5 26l4 5v-6c1-16-1-27-5-37zm222 388c6 1 10 3 12 7-5 0-8-1-12-7m-5-3l3 5c5 5 8 7 14 7h4l-2-3c-3-5-7-6-14-8zm-193-215v-3l4 2-2 4-2-3m-1-6l-1 3v3c0 2 1 4 4 5 2 0 2-1 3-3l2-3zm509 311h1-2 1m-2-3l-2 6 5-1 11-2-11-2-1-1zm-477-255l1 1-1-1m297 247v-1zM1761 2953v1l-1 2 2 2 3-2-1-2-1-1-1 1z"/></g></svg>