<?xml version="1.0" standalone="no"?>
<!DOCTYPE svg PUBLIC "-//W3C//DTD SVG 20010904//EN"
 "http://www.w3.org/TR/2001/REC-SVG-20010904/DTD/svg10.dtd">
<svg version="1.0" xmlns="http://www.w3.org/2000/svg"
 width="512.000000pt" height="512.000000pt" viewBox="0 0 512.000000 512.000000"
 preserveAspectRatio="xMidYMid meet">
<metadata>
Created by potrace 1.11, written by Peter Selinger 2001-2013
</metadata>
<g transform="translate(0.000000,512.000000) scale(0.100000,-0.100000)"
fill="#000000" stroke="none">
<path d="M584 5101 c-37 -23 -18 28 -272 -735 -227 -682 -222 -661 -167 -712
29 -26 81 -32 118 -12 12 6 204 132 426 280 222 149 407 266 411 261 17 -17
270 -376 268 -378 -2 -2 -32 -5 -68 -9 -83 -7 -241 -27 -325 -41 -58 -10 -169
-39 -238 -63 -134 -46 -218 -130 -201 -198 5 -19 277 -298 856 -877 l848 -849
0 -568 c0 -533 -1 -569 -18 -574 -14 -4 -55 -10 -147 -21 -146 -19 -357 -63
-459 -96 -168 -55 -226 -104 -226 -191 0 -160 220 -261 660 -305 156 -15 600
-7 701 12 13 3 44 8 69 11 231 29 421 114 465 208 56 117 4 191 -179 255 -109
39 -404 99 -566 116 -30 3 -62 8 -71 11 -14 4 -15 65 -15 574 l1 570 836 837
c460 461 844 849 853 863 21 33 20 66 -4 105 -30 48 -72 60 -124 35 -22 -11
-52 -29 -66 -40 -23 -19 -94 -43 -160 -55 -92 -16 -213 -35 -261 -40 -31 -3
-65 -7 -75 -9 -11 -2 -59 -7 -109 -11 -49 -4 -108 -8 -130 -10 -214 -19 -454
-27 -830 -29 -364 -2 -486 3 -492 20 -2 6 -23 37 -47 70 -23 32 -50 70 -59 84
l-16 26 52 1 c29 1 260 4 514 6 423 5 464 7 492 23 62 37 62 131 0 175 -29 21
-32 21 -557 15 -290 -4 -555 -8 -590 -10 l-63 -4 -67 95 c-37 52 -74 105 -82
116 -8 12 -49 69 -91 127 -69 96 -99 142 -99 153 0 2 209 143 464 313 255 170
470 318 476 328 33 52 19 115 -32 146 -32 19 -51 20 -803 20 -734 0 -771 -1
-801 -19z m953 -1529 c10 -15 34 -50 55 -78 21 -28 38 -54 38 -57 0 -3 -17 -4
-37 -2 -21 2 -76 6 -123 10 -129 10 -349 32 -390 40 -12 2 -57 9 -101 16 -43
6 -79 15 -79 19 0 4 35 13 78 19 42 7 88 14 102 17 14 2 57 7 95 10 39 3 73 8
76 10 3 1 50 6 105 10 54 3 100 7 102 9 1 1 16 2 32 3 23 0 35 -6 47 -26z"/>
<path d="M3895 4465 c-253 -46 -495 -206 -640 -425 -74 -111 -136 -257 -150
-351 -4 -24 -9 -48 -12 -52 -12 -20 382 23 592 64 55 10 111 21 124 24 12 2
42 20 66 39 156 128 368 80 467 -106 19 -36 23 -58 23 -134 0 -137 -5 -145
-311 -454 -276 -279 -262 -261 -279 -371 -8 -51 27 -99 85 -117 65 -19 260
-23 351 -7 85 15 210 55 272 87 183 93 350 264 437 448 85 181 109 362 76 589
-8 57 -52 186 -77 229 -10 18 -19 37 -19 42 0 18 -101 156 -156 213 -60 61
-166 147 -182 147 -6 0 -12 3 -14 8 -6 14 -110 64 -193 92 -47 16 -85 27 -85
25 0 -2 -15 1 -32 6 -50 16 -264 18 -343 4z"/>
</g>
</svg>
